<?xml version="1.0" encoding="UTF-8" standalone="no"?>
<svg
   version="1.0"
   width="46.990002mm"
   height="40.130001mm"
   id="svg149"
   xmlns="http://www.w3.org/2000/svg"
   xmlns:svg="http://www.w3.org/2000/svg">
  <defs
     id="defs9">
    <clipPath
       clipPathUnits="userSpaceOnUse"
       id="clipEmfPath1">
      <path
         d="  M 0,0   L 0,0   L 0,153.42103   L 179.33785,153.42103   L 179.33785,0 "
         id="path2" />
    </clipPath>
    <clipPath
       clipPathUnits="userSpaceOnUse"
       id="clipEmfPath2">
      <path
         d="  M 0,0.10001371   L 0,0.10001371   L 0,153.32102   L 178.43766,153.32102   L 178.43766,0.10001371 "
         id="path5" />
    </clipPath>
    <pattern
       id="EMFhbasepattern"
       patternUnits="userSpaceOnUse"
       width="6"
       height="6"
       x="0"
       y="0" />
  </defs>
  <path
     style="fill:#7ed6f6;fill-rule:nonzero;fill-opacity:1;stroke:none;"
     clip-path="url(#clipEmfPath1)"
     d="  M 4.4009289,4.7006444   L 4.4009289,4.7006444   L 175.03694,4.7006444   L 175.03694,29.003976   L 4.4009289,29.003976   L 4.4009289,4.7006444   z "
     id="path11" />
  <path
     style="fill:none;stroke:#7ed6f6;stroke-width:1.2002534px;stroke-linecap:butt;stroke-linejoin:miter;stroke-miterlimit:3;stroke-dasharray:none;stroke-opacity:1;"
     clip-path="url(#clipEmfPath1)"
     d="  M 4.4009289,4.7006444   L 4.4009289,4.7006444   L 175.03694,4.7006444   L 175.03694,29.003976   L 4.4009289,29.003976   L 4.4009289,4.7006444   z "
     id="path13" />
  <path
     style="fill:#7ed6f6;fill-rule:nonzero;fill-opacity:1;stroke:none;"
     clip-path="url(#clipEmfPath1)"
     d="  M 4.1008655,44.106046   L 4.1008655,44.106046   L 176.93735,44.106046   L 176.93735,68.609405   L 4.1008655,68.609405   L 4.1008655,44.106046   z "
     id="path15" />
  <path
     style="fill:none;stroke:#7ed6f6;stroke-width:1.2002534px;stroke-linecap:butt;stroke-linejoin:miter;stroke-miterlimit:3;stroke-dasharray:none;stroke-opacity:1;"
     clip-path="url(#clipEmfPath2)"
     d="  M 4.1008655,44.106046   L 4.1008655,44.106046   L 176.93735,44.106046   L 176.93735,68.609405   L 4.1008655,68.609405   L 4.1008655,44.106046   z "
     id="path17" />
  <path
     style="fill:#7ed6f6;fill-rule:nonzero;fill-opacity:1;stroke:none;"
     clip-path="url(#clipEmfPath1)"
     d="  M 4.6009711,85.71175   L 4.6009711,85.71175   L 174.73688,85.71175   L 174.73688,110.31512   L 4.6009711,110.31512   L 4.6009711,85.71175   z "
     id="path19" />
  <path
     style="fill:none;stroke:#7ed6f6;stroke-width:1.2002534px;stroke-linecap:butt;stroke-linejoin:miter;stroke-miterlimit:3;stroke-dasharray:none;stroke-opacity:1;"
     clip-path="url(#clipEmfPath1)"
     d="  M 4.6009711,85.71175   L 4.6009711,85.71175   L 174.73688,85.71175   L 174.73688,110.31512   L 4.6009711,110.31512   L 4.6009711,85.71175   z "
     id="path21" />
  <path
     style="fill:#fefefe;fill-rule:nonzero;fill-opacity:1;stroke:none;"
     clip-path="url(#clipEmfPath1)"
     d="  M 0.60012666,0.70009597   L 0.60012666,0.70009597   L 171.33616,0.70009597   L 171.33616,23.903277   L 0.60012666,23.903277   L 0.60012666,0.70009597   z "
     id="path23" />
  <path
     style="fill:none;stroke:#00adee;stroke-width:1.2002534px;stroke-linecap:butt;stroke-linejoin:miter;stroke-miterlimit:3;stroke-dasharray:none;stroke-opacity:1;"
     clip-path="url(#clipEmfPath2)"
     d="  M 0.60012666,0.70009597   L 0.60012666,0.70009597   L 171.33616,0.70009597   L 171.33616,23.903277   L 0.60012666,23.903277   L 0.60012666,0.70009597   z "
     id="path25" />
  <path
     style="fill:#fefefe;fill-rule:nonzero;fill-opacity:1;stroke:none;"
     clip-path="url(#clipEmfPath1)"
     d="  M 0.60012666,40.405539   L 0.60012666,40.405539   L 173.43661,40.405539   L 173.43661,64.808884   L 0.60012666,64.808884   L 0.60012666,40.405539   z "
     id="path27" />
  <path
     style="fill:none;stroke:#00adee;stroke-width:1.2002534px;stroke-linecap:butt;stroke-linejoin:miter;stroke-miterlimit:3;stroke-dasharray:none;stroke-opacity:1;"
     clip-path="url(#clipEmfPath2)"
     d="  M 0.60012666,40.405539   L 0.60012666,40.405539   L 173.43661,40.405539   L 173.43661,64.808884   L 0.60012666,64.808884   L 0.60012666,40.405539   z "
     id="path29" />
  <path
     style="fill:#fefefe;fill-rule:nonzero;fill-opacity:1;stroke:none;"
     clip-path="url(#clipEmfPath1)"
     d="  M 0.60012666,81.41116   L 0.60012666,81.41116   L 170.63602,81.41116   L 170.63602,106.01453   L 0.60012666,106.01453   L 0.60012666,81.41116   z "
     id="path31" />
  <path
     style="fill:none;stroke:#00adee;stroke-width:1.2002534px;stroke-linecap:butt;stroke-linejoin:miter;stroke-miterlimit:3;stroke-dasharray:none;stroke-opacity:1;"
     clip-path="url(#clipEmfPath2)"
     d="  M 0.60012666,81.41116   L 0.60012666,81.41116   L 170.63602,81.41116   L 170.63602,106.01453   L 0.60012666,106.01453   L 0.60012666,81.41116   z "
     id="path33" />
  <path
     style="fill:#000000;fill-rule:nonzero;fill-opacity:1;stroke:none;"
     clip-path="url(#clipEmfPath1)"
     d="  M 57.412118,16.802303   L 57.412118,16.802303   C 57.412118,15.502125 57.412118,15.10207 57.412118,14.001919   C 57.512139,14.001919 57.61216,14.001919 57.812202,14.001919   C 59.112476,14.001919 60.31273,13.801892 60.912856,12.801755   C 61.112899,12.4017 61.21292,12.001645 61.21292,11.60159   C 61.21292,10.801481 60.912856,9.9013573 59.712603,9.5013025   C 59.212498,9.3012751 58.712392,9.3012751 58.012244,9.3012751   L 57.312096,9.3012751   C 57.112054,9.3012751 56.311885,9.4012888 56.111843,9.4012888   L 56.111843,9.4012888   C 56.211864,11.101522 56.211864,12.701741 56.211864,14.401974   C 56.211864,15.602139 56.211864,16.102207 56.111843,16.802303   L 56.211864,16.902317   C 56.811991,16.902317 56.811991,16.902317 57.412118,16.902317   L 57.412118,16.802303   z  M 57.312096,13.101796   L 57.312096,13.101796   C 57.312096,12.701741 57.312096,12.201673 57.312096,11.701604   C 57.312096,11.201536 57.312096,10.701467 57.312096,10.201398   C 57.61216,10.201398 57.812202,10.201398 58.312308,10.201398   C 58.712392,10.201398 59.612582,10.201398 59.912645,10.901494   C 60.012666,11.101522 60.012666,11.401563 60.012666,11.60159   C 60.012666,11.901632 60.012666,12.101659 59.812624,12.301686   C 59.512561,13.001782 58.712392,13.101796 58.412329,13.101796   C 58.112265,13.101796 57.712181,13.101796 57.312096,13.101796   z "
     id="path35" />
  <path
     style="fill:#000000;fill-rule:nonzero;fill-opacity:1;stroke:none;"
     clip-path="url(#clipEmfPath1)"
     d="  M 64.81368,12.4017   L 64.81368,12.4017   C 64.913701,11.901632 64.913701,11.801618 65.013722,11.301549   L 65.013722,11.201536   C 64.913701,11.201536 64.81368,11.201536 64.713659,11.201536   C 63.813469,11.201536 63.513405,11.901632 63.413384,12.201673   L 63.413384,11.301549   L 63.413384,11.301549   C 62.913279,11.401563 62.713236,11.401563 62.313152,11.501577   L 62.213131,11.60159   C 62.313152,12.201673 62.313152,12.601728 62.313152,14.301961   C 62.313152,15.302098 62.313152,16.002194 62.313152,16.802303   L 62.313152,16.902317   C 62.813258,16.902317 63.0133,16.902317 63.513405,16.902317   L 63.513405,16.802303   C 63.513405,16.202221 63.413384,15.602139 63.413384,14.401974   C 63.413384,13.301824 63.413384,12.801755 63.91349,12.501714   C 64.013511,12.4017 64.113532,12.301686 64.313574,12.301686   C 64.513616,12.301686 64.613638,12.4017 64.713659,12.4017   L 64.81368,12.4017   z "
     id="path37" />
  <path
     style="fill:#000000;fill-rule:nonzero;fill-opacity:1;stroke:none;"
     clip-path="url(#clipEmfPath1)"
     d="  M 70.114799,15.502125   L 70.114799,15.502125   C 70.014778,15.602139 69.814735,15.802166 69.414651,16.002194   C 69.114588,16.102207 68.814524,16.102207 68.514461,16.102207   C 68.114376,16.102207 67.51425,16.102207 67.114165,15.602139   C 66.714081,15.10207 66.714081,14.602002 66.714081,14.201947   C 68.41444,14.201947 68.714503,14.201947 70.414862,14.201947   L 70.414862,14.201947   C 70.414862,13.701878 70.514883,12.701741 69.914756,11.901632   C 69.514672,11.60159 69.014566,11.201536 68.114376,11.201536   C 66.714081,11.201536 65.513828,12.201673 65.513828,14.101933   C 65.513828,16.002194 66.61406,17.002331 68.41444,17.002331   C 69.31463,17.002331 69.914756,16.70229 70.114799,16.602276   L 70.114799,16.502262   C 70.21482,16.102207 70.21482,16.002194 70.21482,15.602139   L 70.114799,15.502125   z  M 69.31463,13.401837   L 69.31463,13.401837   C 68.41444,13.401837 68.014355,13.401837 66.714081,13.401837   C 66.814102,12.4017 67.51425,12.001645 68.114376,12.001645   C 68.614482,12.001645 69.014566,12.201673 69.214609,12.801755   C 69.31463,13.001782 69.31463,13.301824 69.31463,13.401837   z "
     id="path39" />
  <path
     style="fill:#000000;fill-rule:nonzero;fill-opacity:1;stroke:none;"
     clip-path="url(#clipEmfPath1)"
     d="  M 73.515516,13.501851   L 73.515516,13.501851   C 72.815369,13.301824 72.415284,13.20181 72.415284,12.701741   C 72.415284,12.4017 72.615326,12.201673 72.91539,12.101659   C 73.115432,12.001645 73.315474,12.001645 73.415495,12.001645   C 74.115643,12.001645 74.515728,12.301686 74.815791,12.501714   L 74.915812,12.4017   C 74.915812,12.001645 74.915812,12.001645 75.015833,11.60159   L 74.915812,11.501577   C 74.71577,11.401563 74.215664,11.201536 73.415495,11.201536   C 72.215242,11.201536 71.215031,11.701604 71.215031,12.801755   C 71.215031,13.901906 72.215242,14.201947 72.615326,14.401974   L 73.015411,14.501988   C 73.615538,14.702015 74.115643,14.902043 74.115643,15.302098   C 74.115643,15.702153 73.81558,16.102207 72.91539,16.102207   C 72.115221,16.102207 71.615115,15.802166 71.415073,15.602139   L 71.315052,15.702153   C 71.315052,16.102207 71.315052,16.102207 71.315052,16.602276   L 71.315052,16.70229   C 71.415073,16.70229 71.415073,16.70229 71.515094,16.70229   C 71.915179,16.902317 72.415284,17.002331 72.91539,17.002331   C 73.315474,17.002331 74.115643,16.902317 74.615749,16.502262   C 75.115854,16.102207 75.215875,15.602139 75.215875,15.202084   C 75.215875,14.101933 74.315685,13.801892 73.81558,13.601865   L 73.515516,13.501851   z "
     id="path41" />
  <path
     style="fill:#000000;fill-rule:nonzero;fill-opacity:1;stroke:none;"
     clip-path="url(#clipEmfPath1)"
     d="  M 80.617015,15.502125   L 80.617015,15.502125   C 80.416973,15.602139 80.216931,15.802166 79.816846,16.002194   C 79.516783,16.102207 79.21672,16.102207 78.916656,16.102207   C 78.616593,16.102207 78.016466,16.102207 77.516361,15.602139   C 77.216298,15.10207 77.116276,14.602002 77.116276,14.201947   C 78.916656,14.201947 79.116699,14.201947 80.817058,14.201947   L 80.917079,14.201947   C 80.917079,13.701878 80.917079,12.701741 80.316952,11.901632   C 80.016889,11.60159 79.416762,11.201536 78.616593,11.201536   C 77.216298,11.201536 76.016044,12.201673 76.016044,14.101933   C 76.016044,16.002194 77.116276,17.002331 78.816635,17.002331   C 79.816846,17.002331 80.316952,16.70229 80.516994,16.602276   L 80.617015,16.502262   C 80.617015,16.102207 80.617015,16.002194 80.717036,15.602139   L 80.617015,15.502125   z  M 79.816846,13.401837   L 79.816846,13.401837   C 78.816635,13.401837 78.416551,13.401837 77.116276,13.401837   C 77.216298,12.4017 77.916445,12.001645 78.516572,12.001645   C 79.016678,12.001645 79.516783,12.201673 79.716825,12.801755   C 79.816846,13.001782 79.816846,13.301824 79.816846,13.401837   z "
     id="path43" />
  <path
     style="fill:#000000;fill-rule:nonzero;fill-opacity:1;stroke:none;"
     clip-path="url(#clipEmfPath1)"
     d="  M 86.818324,16.802303   L 86.818324,16.802303   C 86.818324,16.402249 86.818324,15.90218 86.718303,14.702015   L 86.718303,13.401837   C 86.718303,12.801755 86.718303,12.4017 86.618282,12.101659   C 86.518261,11.801618 86.218198,11.60159 86.018155,11.401563   C 85.718092,11.301549 85.318008,11.201536 85.117965,11.201536   C 84.117754,11.201536 83.517628,11.701604 83.217564,11.901632   L 83.217564,11.301549   L 83.117543,11.301549   C 82.717459,11.401563 82.617438,11.401563 82.017311,11.501577   L 82.017311,11.60159   C 82.017311,12.301686 82.117332,13.20181 82.117332,14.902043   C 82.117332,15.602139 82.117332,16.202221 82.117332,16.802303   L 82.117332,16.902317   C 82.617438,16.902317 82.717459,16.902317 83.217564,16.802303   L 83.317585,16.802303   C 83.217564,15.502125 83.217564,14.602002 83.217564,12.701741   C 83.517628,12.501714 84.017733,12.101659 84.61786,12.101659   C 84.817902,12.101659 85.418029,12.101659 85.618071,12.901769   C 85.618071,13.20181 85.618071,13.301824 85.618071,14.902043   C 85.618071,15.402111 85.618071,15.90218 85.618071,16.502262   C 85.618071,16.602276 85.618071,16.70229 85.618071,16.802303   L 85.718092,16.902317   C 86.218198,16.902317 86.218198,16.902317 86.718303,16.802303   L 86.818324,16.802303   z "
     id="path45" />
  <path
     style="fill:#000000;fill-rule:nonzero;fill-opacity:1;stroke:none;"
     clip-path="url(#clipEmfPath1)"
     d="  M 90.619126,16.002194   L 90.619126,16.002194   C 90.519105,16.002194 90.319063,16.002194 90.119021,16.002194   C 89.618915,16.002194 89.518894,15.802166 89.518894,15.002057   C 89.518894,14.902043 89.518894,14.301961 89.518894,14.201947   L 89.518894,12.201673   C 90.119021,12.201673 90.119021,12.201673 90.619126,12.201673   L 90.719148,12.101659   C 90.719148,11.801618 90.719148,11.701604 90.719148,11.401563   L 90.719148,11.301549   C 90.119021,11.301549 90.019,11.301549 89.518894,11.401563   C 89.518894,10.601453 89.518894,10.401426 89.518894,9.7013299   L 89.518894,9.7013299   C 89.018789,9.8013436 88.918768,9.9013573 88.418662,10.001371   L 88.318641,10.101385   C 88.318641,10.301412 88.418662,10.50144 88.418662,10.701467   C 88.418662,10.901494 88.418662,11.101522 88.418662,11.301549   C 88.018578,11.401563 87.918556,11.301549 87.718514,11.301549   L 87.618493,11.401563   C 87.618493,11.701604 87.618493,11.801618 87.618493,12.201673   L 87.618493,12.201673   C 88.018578,12.201673 88.018578,12.201673 88.418662,12.201673   L 88.418662,14.501988   C 88.418662,15.802166 88.418662,16.002194 88.618704,16.402249   C 88.918768,16.902317 89.518894,16.902317 89.818958,16.902317   C 90.219042,16.902317 90.419084,16.902317 90.619126,16.802303   L 90.619126,16.70229   C 90.719148,16.402249 90.719148,16.402249 90.719148,16.002194   L 90.619126,16.002194   z "
     id="path47" />
  <path
     style="fill:#000000;fill-rule:nonzero;fill-opacity:1;stroke:none;"
     clip-path="url(#clipEmfPath1)"
     d="  M 95.720203,13.601865   L 95.720203,13.601865   C 95.720203,13.20181 95.720203,12.601728 95.620182,12.301686   C 95.42014,11.501577 94.619971,11.201536 93.819802,11.201536   C 93.219675,11.201536 92.619549,11.301549 92.019422,11.60159   L 91.919401,11.60159   C 91.919401,11.801618 91.919401,11.901632 91.919401,12.4017   L 92.019422,12.4017   C 92.419506,12.301686 92.919612,12.001645 93.61976,12.001645   C 94.119865,12.001645 94.319907,12.201673 94.51995,12.4017   C 94.619971,12.601728 94.619971,12.801755 94.619971,13.101796   L 94.419929,13.101796   C 92.519527,13.301824 91.319274,13.801892 91.319274,15.202084   C 91.319274,16.302235 92.019422,17.002331 93.119654,17.002331   C 93.919823,17.002331 94.419929,16.602276 94.619971,16.402249   L 94.619971,16.802303   L 94.619971,16.902317   C 95.120076,16.902317 95.220097,16.902317 95.720203,16.802303   L 95.720203,16.802303   C 95.720203,16.102207 95.720203,16.002194 95.720203,14.702015   L 95.720203,13.601865   z  M 94.619971,13.901906   L 94.619971,13.901906   L 94.619971,15.602139   C 94.419929,15.802166 94.119865,16.102207 93.419717,16.102207   C 92.419506,16.102207 92.419506,15.202084 92.419506,15.10207   C 92.419506,14.201947 93.419717,14.101933 94.51995,13.901906   L 94.619971,13.901906   z "
     id="path49" />
  <path
     style="fill:#000000;fill-rule:nonzero;fill-opacity:1;stroke:none;"
     clip-path="url(#clipEmfPath1)"
     d="  M 99.521005,16.002194   L 99.521005,16.002194   C 99.420984,16.002194 99.220942,16.002194 99.0209,16.002194   C 98.520794,16.002194 98.420773,15.802166 98.420773,15.002057   C 98.420773,14.902043 98.420773,14.301961 98.420773,14.201947   L 98.420773,12.201673   C 99.0209,12.201673 99.0209,12.201673 99.521005,12.201673   L 99.621026,12.101659   C 99.621026,11.801618 99.621026,11.701604 99.621026,11.401563   L 99.621026,11.301549   C 99.0209,11.301549 98.820857,11.301549 98.420773,11.401563   C 98.420773,10.601453 98.420773,10.401426 98.420773,9.7013299   L 98.420773,9.7013299   C 97.920667,9.8013436 97.820646,9.9013573 97.320541,10.001371   L 97.22052,10.101385   C 97.22052,10.301412 97.320541,10.50144 97.320541,10.701467   C 97.320541,10.901494 97.320541,11.101522 97.320541,11.301549   C 96.920456,11.401563 96.820435,11.301549 96.620393,11.301549   L 96.520372,11.401563   C 96.520372,11.701604 96.520372,11.801618 96.520372,12.201673   L 96.520372,12.201673   C 96.920456,12.201673 96.920456,12.201673 97.320541,12.201673   L 97.320541,14.501988   C 97.320541,15.802166 97.320541,16.002194 97.420562,16.402249   C 97.820646,16.902317 98.420773,16.902317 98.720836,16.902317   C 99.120921,16.902317 99.320963,16.902317 99.521005,16.802303   L 99.521005,16.70229   C 99.621026,16.402249 99.621026,16.402249 99.621026,16.002194   L 99.521005,16.002194   z "
     id="path51" />
  <path
     style="fill:#000000;fill-rule:nonzero;fill-opacity:1;stroke:none;"
     clip-path="url(#clipEmfPath1)"
     d="  M 101.72147,16.802303   L 101.72147,16.802303   C 101.72147,16.102207 101.72147,15.802166 101.72147,13.801892   C 101.72147,12.501714 101.72147,11.901632 101.72147,11.301549   L 101.62145,11.301549   C 101.12134,11.401563 100.9213,11.401563 100.52122,11.501577   L 100.4212,11.60159   C 100.52122,12.201673 100.52122,12.601728 100.52122,14.602002   C 100.52122,15.802166 100.52122,16.202221 100.52122,16.802303   L 100.52122,16.902317   C 101.02132,16.902317 101.12134,16.902317 101.72147,16.802303   L 101.72147,16.802303   z  M 101.72147,9.7013299   L 101.72147,9.7013299   C 101.72147,9.3012751 101.72147,9.1012477 101.72147,8.7011928   L 101.72147,8.6011791   C 101.12134,8.7011928 101.12134,8.7011928 100.52122,8.8012065   L 100.4212,8.8012065   C 100.4212,9.001234 100.4212,9.2012614 100.4212,9.4012888   C 100.4212,9.5013025 100.4212,9.7013299 100.4212,9.8013436   L 100.52122,9.9013573   C 101.02132,9.8013436 101.12134,9.8013436 101.72147,9.8013436   L 101.72147,9.7013299   z "
     id="path53" />
  <path
     style="fill:#000000;fill-rule:nonzero;fill-opacity:1;stroke:none;"
     clip-path="url(#clipEmfPath1)"
     d="  M 108.12282,14.001919   L 108.12282,14.001919   C 108.12282,13.301824 108.0228,12.501714 107.52269,12.001645   C 107.02259,11.401563 106.32244,11.201536 105.62229,11.201536   C 104.52206,11.201536 103.92193,11.60159 103.62187,11.901632   C 102.92172,12.701741 102.92172,13.701878 102.92172,14.101933   C 102.92172,14.401974 102.92172,15.502125 103.62187,16.302235   C 104.02196,16.602276 104.62208,17.002331 105.52227,17.002331   C 106.32244,17.002331 106.92257,16.802303 107.42267,16.302235   C 107.72274,16.002194 107.92278,15.602139 108.0228,15.002057   C 108.12282,14.702015 108.12282,14.401974 108.12282,14.001919   z  M 107.02259,14.101933   L 107.02259,14.101933   C 107.02259,14.301961 107.02259,15.002057 106.72253,15.502125   C 106.42246,16.002194 105.92236,16.202221 105.52227,16.202221   C 105.32223,16.202221 105.12219,16.102207 104.92215,16.002194   C 104.12198,15.602139 104.12198,14.501988 104.12198,14.101933   C 104.12198,13.701878 104.12198,13.101796 104.42204,12.601728   C 104.7221,12.001645 105.32223,12.001645 105.52227,12.001645   C 106.1224,12.001645 106.52248,12.301686 106.72253,12.601728   C 106.92257,13.101796 107.02259,13.801892 107.02259,14.101933   z "
     id="path55" />
  <path
     style="fill:#000000;fill-rule:nonzero;fill-opacity:1;stroke:none;"
     clip-path="url(#clipEmfPath1)"
     d="  M 114.12409,16.802303   L 114.12409,16.802303   C 114.12409,16.402249 114.12409,15.90218 114.12409,14.702015   L 114.12409,13.401837   C 114.12409,12.801755 114.02407,12.4017 113.92405,12.101659   C 113.82402,11.801618 113.62398,11.60159 113.32392,11.401563   C 113.02386,11.301549 112.72379,11.201536 112.42373,11.201536   C 111.52354,11.201536 110.82339,11.701604 110.62335,11.901632   L 110.62335,11.301549   L 110.52333,11.301549   C 110.02322,11.401563 109.9232,11.401563 109.4231,11.501577   L 109.32307,11.60159   C 109.4231,12.301686 109.4231,13.20181 109.4231,14.902043   C 109.4231,15.602139 109.4231,16.202221 109.4231,16.802303   L 109.4231,16.902317   C 110.02322,16.902317 110.02322,16.902317 110.62335,16.802303   L 110.62335,16.802303   C 110.62335,15.502125 110.52333,14.602002 110.52333,12.701741   C 110.82339,12.501714 111.3235,12.101659 112.02364,12.101659   C 112.12367,12.101659 112.72379,12.101659 112.92383,12.901769   C 113.02386,13.20181 113.02386,13.301824 113.02386,14.902043   C 113.02386,15.402111 113.02386,15.90218 113.02386,16.502262   C 113.02386,16.602276 112.92383,16.70229 112.92383,16.802303   L 113.02386,16.902317   C 113.52396,16.902317 113.62398,16.902317 114.12409,16.802303   L 114.12409,16.802303   z "
     id="path57" />
  <path
     style="fill:#000000;fill-rule:nonzero;fill-opacity:1;stroke:none;"
     clip-path="url(#clipEmfPath1)"
     d="  M 36.807769,89.412257   L 36.807769,89.412257   L 36.707748,89.412257   C 36.107621,89.412257 36.0076,89.412257 35.207431,89.412257   L 35.10741,89.512271   C 34.807347,90.512408 34.607304,91.212504 34.007178,93.112765   C 33.607093,94.212915 33.207009,95.313066 32.806924,96.513231   C 32.706903,96.613244 32.706903,96.713258 32.706903,96.813272   L 32.706903,96.913286   C 33.207009,96.913286 33.30703,96.913286 33.807135,96.913286   L 33.907157,96.813272   C 34.107199,95.813135 34.20722,95.613107 34.507283,94.61297   C 34.907368,94.61297 35.407473,94.61297 35.907579,94.61297   C 36.307663,94.61297 36.707748,94.61297 37.107832,94.61297   C 37.407895,95.513094 37.507917,95.813135 37.80798,96.813272   L 37.80798,96.913286   C 38.308085,96.913286 38.508128,96.913286 39.108254,96.913286   L 39.108254,96.813272   C 38.808191,95.813135 38.308085,94.112902 37.908001,93.112765   C 37.607938,92.112627 37.207853,90.812449 36.90779,89.612285   L 36.807769,89.412257   z  M 35.907579,90.212367   L 35.907579,90.212367   L 36.90779,93.712847   C 36.507705,93.712847 36.107621,93.812861 35.807558,93.812861   C 35.407473,93.812861 35.10741,93.712847 34.807347,93.712847   L 35.907579,90.212367   z "
     id="path59" />
  <path
     style="fill:#000000;fill-rule:nonzero;fill-opacity:1;stroke:none;"
     clip-path="url(#clipEmfPath1)"
     d="  M 41.008655,91.412531   L 41.008655,91.412531   L 40.908634,91.312518   C 40.50855,91.412531 40.308508,91.412531 39.808402,91.512545   L 39.808402,91.612559   C 39.908423,92.812723 39.908423,93.512819 39.908423,95.213052   C 39.908423,95.813135 39.908423,96.413217 39.908423,97.013299   C 39.908423,98.11345 39.908423,98.813546 39.908423,99.413628   L 39.908423,99.513642   C 40.308508,99.513642 40.708592,99.513642 41.008655,99.513642   L 41.108677,99.413628   C 41.108677,98.413491 41.008655,98.11345 41.008655,96.913286   C 41.208698,96.913286 41.308719,96.913286 41.508761,96.913286   C 43.709225,96.913286 44.809458,95.513094 44.809458,93.812861   C 44.809458,92.312655 43.909268,91.212504 42.508972,91.212504   C 41.708803,91.212504 41.208698,91.612559 41.008655,91.812586   L 41.008655,91.412531   z  M 41.008655,96.113176   L 41.008655,96.113176   C 41.008655,95.41308 41.008655,94.812998 41.008655,94.212915   C 41.008655,93.712847 41.008655,93.112765 41.008655,92.612696   C 41.308719,92.412669 41.708803,92.112627 42.208909,92.112627   C 43.109099,92.112627 43.709225,92.812723 43.709225,93.912874   C 43.709225,95.213052 42.909057,96.113176 41.508761,96.113176   C 41.308719,96.113176 41.208698,96.113176 41.008655,96.113176   z "
     id="path61" />
  <path
     style="fill:#000000;fill-rule:nonzero;fill-opacity:1;stroke:none;"
     clip-path="url(#clipEmfPath1)"
     d="  M 47.209964,91.412531   L 47.209964,91.412531   L 47.209964,91.312518   C 46.709859,91.412531 46.609838,91.412531 46.009711,91.512545   L 46.009711,91.612559   C 46.109732,92.812723 46.109732,93.512819 46.109732,95.213052   C 46.109732,95.813135 46.109732,96.413217 46.109732,97.013299   C 46.109732,98.11345 46.109732,98.813546 46.109732,99.413628   L 46.209753,99.513642   C 46.509817,99.513642 46.909901,99.513642 47.309985,99.513642   L 47.309985,99.413628   C 47.309985,98.413491 47.309985,98.11345 47.209964,96.913286   C 47.410007,96.913286 47.510028,96.913286 47.71007,96.913286   C 50.010555,96.913286 51.110788,95.513094 51.110788,93.812861   C 51.110788,92.312655 50.110577,91.212504 48.810302,91.212504   C 47.910112,91.212504 47.410007,91.612559 47.209964,91.812586   L 47.209964,91.412531   z  M 47.209964,96.113176   L 47.209964,96.113176   C 47.209964,95.41308 47.209964,94.812998 47.209964,94.212915   C 47.209964,93.712847 47.209964,93.112765 47.209964,92.612696   C 47.510028,92.412669 47.910112,92.112627 48.510239,92.112627   C 49.310408,92.112627 49.910534,92.812723 49.910534,93.912874   C 49.910534,95.213052 49.110365,96.113176 47.71007,96.113176   C 47.510028,96.113176 47.410007,96.113176 47.209964,96.113176   z "
     id="path63" />
  <path
     style="fill:#000000;fill-rule:nonzero;fill-opacity:1;stroke:none;"
     clip-path="url(#clipEmfPath1)"
     d="  M 53.511294,96.813272   L 53.511294,96.813272   C 53.511294,95.813135 53.411273,95.013025 53.411273,92.71271   C 53.411273,91.312518 53.411273,89.912326 53.511294,88.512134   L 53.411273,88.41212   C 52.911168,88.512134 52.811147,88.612148 52.311041,88.612148   L 52.21102,88.712161   C 52.311041,90.112353 52.311041,91.612559 52.311041,93.112765   C 52.311041,95.113039 52.311041,96.113176 52.311041,96.813272   L 52.311041,96.913286   C 52.811147,96.913286 52.911168,96.913286 53.411273,96.913286   L 53.511294,96.813272   z "
     id="path65" />
  <path
     style="fill:#000000;fill-rule:nonzero;fill-opacity:1;stroke:none;"
     clip-path="url(#clipEmfPath1)"
     d="  M 56.211864,96.813272   L 56.211864,96.813272   C 56.111843,96.113176 56.111843,95.813135 56.111843,93.812861   C 56.111843,92.512682 56.211864,91.9126 56.211864,91.412531   L 56.111843,91.312518   C 55.511716,91.412531 55.411695,91.412531 54.91159,91.512545   L 54.91159,91.612559   C 55.011611,92.212641 55.011611,92.612696 55.011611,94.61297   C 55.011611,95.813135 55.011611,96.313203 54.91159,96.813272   L 55.011611,96.913286   C 55.511716,96.913286 55.611738,96.913286 56.111843,96.913286   L 56.211864,96.813272   z  M 56.211864,89.712298   L 56.211864,89.712298   C 56.211864,89.312244 56.211864,89.21223 56.211864,88.712161   L 56.111843,88.712161   C 55.611738,88.712161 55.511716,88.712161 55.011611,88.812175   L 54.91159,88.812175   C 54.91159,89.112216 54.91159,89.21223 54.91159,89.412257   C 54.91159,89.612285 54.91159,89.712298 54.91159,89.812312   L 55.011611,89.912326   C 55.511716,89.912326 55.611738,89.812312 56.111843,89.812312   L 56.211864,89.712298   z "
     id="path67" />
  <path
     style="fill:#000000;fill-rule:nonzero;fill-opacity:1;stroke:none;"
     clip-path="url(#clipEmfPath1)"
     d="  M 61.512983,95.613107   L 61.512983,95.613107   C 61.312941,95.713121 60.912856,96.113176 60.212709,96.113176   C 59.312519,96.113176 58.51235,95.613107 58.51235,94.112902   C 58.51235,92.812723 59.312519,92.112627 60.212709,92.112627   C 60.612793,92.112627 61.012878,92.312655 61.412962,92.512682   L 61.412962,92.512682   C 61.512983,92.212641 61.512983,92.012614 61.512983,91.612559   L 61.512983,91.612559   C 61.21292,91.512545 60.712814,91.212504 60.012666,91.212504   C 58.412329,91.212504 57.412118,92.512682 57.412118,94.212915   C 57.412118,95.813135 58.412329,97.013299 60.012666,97.013299   C 60.712814,97.013299 61.21292,96.813272 61.512983,96.613244   L 61.512983,96.613244   C 61.613004,96.113176 61.613004,96.113176 61.613004,95.613107   L 61.512983,95.613107   z "
     id="path69" />
  <path
     style="fill:#000000;fill-rule:nonzero;fill-opacity:1;stroke:none;"
     clip-path="url(#clipEmfPath1)"
     d="  M 66.61406,93.612833   L 66.61406,93.612833   C 66.61406,93.212778 66.61406,92.612696 66.514039,92.312655   C 66.313996,91.512545 65.513828,91.212504 64.713659,91.212504   C 64.113532,91.212504 63.513405,91.412531 62.913279,91.612559   L 62.813258,91.612559   C 62.813258,91.9126 62.813258,91.9126 62.813258,92.412669   L 62.913279,92.512682   C 63.313363,92.312655 63.813469,92.112627 64.513616,92.112627   C 65.013722,92.112627 65.313785,92.312655 65.413806,92.512682   C 65.513828,92.612696 65.513828,92.812723 65.513828,93.112765   L 65.313785,93.112765   C 63.413384,93.412806 62.213131,93.812861 62.213131,95.213052   C 62.213131,96.313203 62.913279,97.013299 64.013511,97.013299   C 64.81368,97.013299 65.313785,96.613244 65.513828,96.513231   L 65.513828,96.813272   L 65.513828,96.913286   C 66.013933,96.913286 66.113954,96.913286 66.61406,96.913286   L 66.61406,96.813272   C 66.61406,96.113176 66.61406,96.013162 66.61406,94.712984   L 66.61406,93.612833   z  M 65.513828,93.912874   L 65.513828,93.912874   L 65.513828,95.713121   C 65.413806,95.813135 65.013722,96.113176 64.313574,96.113176   C 63.313363,96.113176 63.313363,95.213052 63.313363,95.213052   C 63.313363,94.212915 64.313574,94.112902 65.413806,93.912874   L 65.513828,93.912874   z "
     id="path71" />
  <path
     style="fill:#000000;fill-rule:nonzero;fill-opacity:1;stroke:none;"
     clip-path="url(#clipEmfPath1)"
     d="  M 70.414862,96.013162   L 70.414862,96.013162   C 70.314841,96.013162 70.114799,96.113176 69.914756,96.113176   C 69.414651,96.113176 69.31463,95.813135 69.31463,95.113039   C 69.31463,94.913011 69.31463,94.312929 69.31463,94.212915   L 69.31463,92.212641   C 69.914756,92.212641 69.914756,92.212641 70.514883,92.212641   L 70.514883,92.212641   C 70.514883,91.812586 70.514883,91.712573 70.514883,91.412531   L 70.514883,91.312518   C 69.914756,91.412531 69.814735,91.412531 69.31463,91.412531   C 69.31463,90.612422 69.31463,90.512408 69.414651,89.812312   L 69.31463,89.712298   C 68.814524,89.912326 68.714503,89.912326 68.214398,90.01234   L 68.114376,90.112353   C 68.214398,90.312381 68.214398,90.512408 68.214398,90.712436   C 68.214398,90.912463 68.214398,91.11249 68.214398,91.412531   C 67.814313,91.412531 67.714292,91.412531 67.51425,91.412531   L 67.414229,91.412531   C 67.414229,91.812586 67.414229,91.9126 67.414229,92.212641   L 67.414229,92.312655   C 67.814313,92.212641 67.814313,92.212641 68.214398,92.212641   L 68.214398,94.61297   C 68.214398,95.813135 68.214398,96.113176 68.41444,96.413217   C 68.714503,96.913286 69.414651,96.913286 69.614693,96.913286   C 70.014778,96.913286 70.21482,96.913286 70.414862,96.813272   L 70.514883,96.813272   C 70.514883,96.513231 70.514883,96.413217 70.514883,96.013162   L 70.414862,96.013162   z "
     id="path73" />
  <path
     style="fill:#000000;fill-rule:nonzero;fill-opacity:1;stroke:none;"
     clip-path="url(#clipEmfPath1)"
     d="  M 72.615326,96.813272   L 72.615326,96.813272   C 72.615326,96.113176 72.615326,95.813135 72.615326,93.812861   C 72.615326,92.512682 72.615326,91.9126 72.615326,91.412531   L 72.515305,91.312518   C 72.0152,91.412531 71.815158,91.412531 71.415073,91.512545   L 71.315052,91.612559   C 71.415073,92.212641 71.415073,92.612696 71.415073,94.61297   C 71.415073,95.813135 71.415073,96.313203 71.415073,96.813272   L 71.415073,96.913286   C 71.915179,96.913286 72.0152,96.913286 72.615326,96.913286   L 72.615326,96.813272   z  M 72.715348,89.712298   L 72.715348,89.712298   C 72.615326,89.312244 72.615326,89.21223 72.715348,88.712161   L 72.615326,88.712161   C 72.115221,88.712161 72.0152,88.712161 71.415073,88.812175   L 71.315052,88.812175   C 71.415073,89.112216 71.415073,89.21223 71.415073,89.412257   C 71.415073,89.612285 71.415073,89.712298 71.415073,89.812312   L 71.415073,89.912326   C 71.915179,89.912326 72.115221,89.812312 72.615326,89.812312   L 72.715348,89.712298   z "
     id="path75" />
  <path
     style="fill:#000000;fill-rule:nonzero;fill-opacity:1;stroke:none;"
     clip-path="url(#clipEmfPath1)"
     d="  M 79.116699,94.012888   L 79.116699,94.012888   C 79.016678,93.312792 78.916656,92.612696 78.416551,92.012614   C 77.916445,91.512545 77.216298,91.212504 76.51615,91.212504   C 75.415918,91.212504 74.815791,91.712573 74.515728,92.012614   C 73.81558,92.71271 73.81558,93.712847 73.81558,94.112902   C 73.81558,94.512957 73.81558,95.613107 74.515728,96.313203   C 74.915812,96.613244 75.515939,97.013299 76.416129,97.013299   C 77.216298,97.013299 77.816424,96.813272 78.31653,96.313203   C 78.616593,96.013162 78.816635,95.613107 79.016678,95.113039   C 79.016678,94.712984 79.116699,94.412943 79.116699,94.012888   z  M 77.916445,94.112902   L 77.916445,94.112902   C 77.916445,94.312929 77.916445,95.013025 77.716403,95.513094   C 77.316319,96.113176 76.816213,96.21319 76.416129,96.21319   C 76.216086,96.21319 76.016044,96.21319 75.816002,96.113176   C 75.015833,95.613107 75.015833,94.61297 75.015833,94.112902   C 75.015833,93.712847 75.015833,93.112765 75.315896,92.612696   C 75.715981,92.112627 76.316108,92.012614 76.51615,92.012614   C 77.016255,92.012614 77.41634,92.312655 77.616382,92.612696   C 77.916445,93.112765 77.916445,93.812861 77.916445,94.112902   z "
     id="path77" />
  <path
     style="fill:#000000;fill-rule:nonzero;fill-opacity:1;stroke:none;"
     clip-path="url(#clipEmfPath1)"
     d="  M 85.117965,96.813272   L 85.117965,96.813272   C 85.017944,96.413217 85.017944,95.913148 85.017944,94.712984   L 85.017944,93.412806   C 85.017944,92.812723 85.017944,92.512682 84.817902,92.212641   C 84.717881,91.9126 84.517839,91.612559 84.217775,91.512545   C 83.917712,91.312518 83.617649,91.312518 83.317585,91.312518   C 82.417395,91.312518 81.717248,91.712573 81.517205,91.9126   L 81.517205,91.412531   L 81.417184,91.312518   C 80.917079,91.412531 80.817058,91.412531 80.316952,91.512545   L 80.216931,91.612559   C 80.316952,92.312655 80.316952,93.212778 80.316952,94.913011   C 80.316952,95.713121 80.316952,96.21319 80.316952,96.813272   L 80.416973,96.913286   C 80.917079,96.913286 81.0171,96.913286 81.517205,96.913286   L 81.517205,96.813272   C 81.517205,95.613107 81.417184,94.61297 81.517205,92.812723   C 81.717248,92.512682 82.217353,92.212641 82.917501,92.212641   C 83.017522,92.212641 83.617649,92.212641 83.817691,93.012751   C 83.917712,93.212778 83.917712,93.312792 83.917712,94.913011   C 83.917712,95.41308 83.917712,96.013162 83.917712,96.513231   C 83.917712,96.613244 83.917712,96.713258 83.917712,96.813272   L 83.917712,96.913286   C 84.417818,96.913286 84.517839,96.913286 85.017944,96.913286   L 85.117965,96.813272   z "
     id="path79" />
  <path
     style="fill:#000000;fill-rule:nonzero;fill-opacity:1;stroke:none;"
     clip-path="url(#clipEmfPath1)"
     d="  M 90.819169,91.412531   L 90.819169,91.412531   L 90.719148,91.312518   C 90.219042,91.412531 90.119021,91.412531 89.618915,91.512545   L 89.518894,91.612559   C 89.718936,92.812723 89.718936,93.512819 89.718936,95.213052   C 89.718936,95.813135 89.718936,96.413217 89.718936,97.013299   C 89.718936,98.11345 89.718936,98.813546 89.718936,99.413628   L 89.718936,99.513642   C 90.119021,99.513642 90.419084,99.513642 90.819169,99.513642   L 90.91919,99.413628   C 90.819169,98.413491 90.819169,98.11345 90.819169,96.913286   C 90.91919,96.913286 91.119232,96.913286 91.319274,96.913286   C 93.519739,96.913286 94.619971,95.513094 94.619971,93.812861   C 94.619971,92.312655 93.719781,91.212504 92.319485,91.212504   C 91.519316,91.212504 91.019211,91.612559 90.819169,91.812586   L 90.819169,91.412531   z  M 90.819169,96.113176   L 90.819169,96.113176   C 90.819169,95.41308 90.819169,94.812998 90.819169,94.212915   C 90.819169,93.712847 90.819169,93.112765 90.819169,92.612696   C 91.019211,92.412669 91.419295,92.112627 92.019422,92.112627   C 92.919612,92.112627 93.419717,92.812723 93.419717,93.912874   C 93.419717,95.213052 92.619549,96.113176 91.219253,96.113176   C 91.119232,96.113176 90.91919,96.113176 90.819169,96.113176   z "
     id="path81" />
  <path
     style="fill:#000000;fill-rule:nonzero;fill-opacity:1;stroke:none;"
     clip-path="url(#clipEmfPath1)"
     d="  M 98.420773,92.412669   L 98.420773,92.412669   C 98.520794,91.9126 98.520794,91.812586 98.620815,91.312518   L 98.620815,91.312518   C 98.520794,91.312518 98.420773,91.212504 98.320752,91.212504   C 97.420562,91.212504 97.120499,91.9126 97.020477,92.312655   L 97.020477,91.412531   L 97.020477,91.312518   C 96.520372,91.412531 96.32033,91.412531 95.920245,91.512545   L 95.820224,91.612559   C 95.920245,92.212641 95.920245,92.612696 95.920245,94.312929   C 95.920245,95.313066 95.920245,96.013162 95.920245,96.813272   L 95.920245,96.913286   C 96.420351,96.913286 96.520372,96.913286 97.020477,96.913286   L 97.120499,96.813272   C 97.020477,96.21319 97.020477,95.613107 97.020477,94.412943   C 97.020477,93.312792 97.020477,92.812723 97.520583,92.512682   C 97.520583,92.412669 97.720625,92.412669 97.920667,92.412669   C 98.12071,92.412669 98.220731,92.412669 98.320752,92.512682   L 98.420773,92.412669   z "
     id="path83" />
  <path
     style="fill:#000000;fill-rule:nonzero;fill-opacity:1;stroke:none;"
     clip-path="url(#clipEmfPath1)"
     d="  M 104.42204,94.012888   L 104.42204,94.012888   C 104.42204,93.312792 104.222,92.612696 103.72189,92.012614   C 103.32181,91.512545 102.62166,91.212504 101.82149,91.212504   C 100.82128,91.212504 100.22115,91.712573 99.92109,92.012614   C 99.120921,92.71271 99.120921,93.712847 99.120921,94.112902   C 99.120921,94.512957 99.120921,95.613107 99.92109,96.313203   C 100.22115,96.613244 100.82128,97.013299 101.82149,97.013299   C 102.52164,97.013299 103.12177,96.813272 103.62187,96.313203   C 103.92193,96.013162 104.222,95.613107 104.32202,95.113039   C 104.42204,94.712984 104.42204,94.412943 104.42204,94.012888   z  M 103.22179,94.112902   L 103.22179,94.112902   C 103.22179,94.312929 103.22179,95.013025 103.02174,95.513094   C 102.72168,96.113176 102.22158,96.21319 101.82149,96.21319   C 101.62145,96.21319 101.32139,96.21319 101.12134,96.113176   C 100.32117,95.613107 100.32117,94.61297 100.32117,94.112902   C 100.32117,93.712847 100.32117,93.112765 100.62124,92.612696   C 101.02132,92.112627 101.62145,92.012614 101.82149,92.012614   C 102.42162,92.012614 102.72168,92.312655 102.92172,92.612696   C 103.22179,93.112765 103.22179,93.812861 103.22179,94.112902   z "
     id="path85" />
  <path
     style="fill:#000000;fill-rule:nonzero;fill-opacity:1;stroke:none;"
     clip-path="url(#clipEmfPath1)"
     d="  M 109.52312,95.613107   L 109.52312,95.613107   C 109.32307,95.713121 108.92299,96.113176 108.22284,96.113176   C 107.32265,96.113176 106.52248,95.613107 106.52248,94.112902   C 106.52248,92.812723 107.32265,92.112627 108.22284,92.112627   C 108.62293,92.112627 109.02301,92.312655 109.32307,92.512682   L 109.4231,92.512682   C 109.4231,92.212641 109.52312,92.012614 109.52312,91.612559   L 109.52312,91.612559   C 109.22305,91.512545 108.72295,91.212504 108.0228,91.212504   C 106.42246,91.212504 105.32223,92.512682 105.32223,94.212915   C 105.32223,95.813135 106.42246,97.013299 108.0228,97.013299   C 108.72295,97.013299 109.12303,96.813272 109.4231,96.613244   L 109.52312,96.613244   C 109.62314,96.113176 109.62314,96.113176 109.62314,95.613107   L 109.52312,95.613107   z "
     id="path87" />
  <path
     style="fill:#000000;fill-rule:nonzero;fill-opacity:1;stroke:none;"
     clip-path="url(#clipEmfPath1)"
     d="  M 114.82424,95.513094   L 114.82424,95.513094   C 114.72421,95.613107 114.52417,95.813135 114.12409,96.013162   C 113.82402,96.113176 113.42394,96.21319 113.12388,96.21319   C 112.82381,96.21319 112.22369,96.113176 111.8236,95.613107   C 111.42352,95.213052 111.42352,94.61297 111.42352,94.312929   C 113.12388,94.312929 113.42394,94.312929 115.02428,94.312929   L 115.1243,94.212915   C 115.1243,93.712847 115.1243,92.71271 114.52417,92.012614   C 114.22411,91.612559 113.62398,91.212504 112.82381,91.212504   C 111.42352,91.212504 110.22326,92.212641 110.22326,94.212915   C 110.22326,96.013162 111.3235,97.013299 113.12388,97.013299   C 114.02407,97.013299 114.62419,96.713258 114.82424,96.613244   L 114.82424,96.513231   C 114.82424,96.113176 114.92426,96.013162 114.92426,95.613107   L 114.82424,95.513094   z  M 114.02407,93.412806   L 114.02407,93.412806   C 113.12388,93.512819 112.62377,93.512819 111.42352,93.512819   C 111.52354,92.412669 112.22369,92.012614 112.82381,92.012614   C 113.2239,92.012614 113.724,92.212641 113.92405,92.812723   C 114.02407,93.112765 114.02407,93.312792 114.02407,93.412806   z "
     id="path89" />
  <path
     style="fill:#000000;fill-rule:nonzero;fill-opacity:1;stroke:none;"
     clip-path="url(#clipEmfPath1)"
     d="  M 118.12493,93.512819   L 118.12493,93.512819   C 117.52481,93.312792 117.12472,93.212778 117.12472,92.71271   C 117.12472,92.412669 117.32476,92.212641 117.62483,92.112627   C 117.82487,92.112627 117.92489,92.112627 118.12493,92.112627   C 118.82508,92.112627 119.22516,92.312655 119.52523,92.512682   L 119.62525,92.412669   C 119.62525,92.012614 119.62525,92.012614 119.62525,91.612559   L 119.62525,91.512545   C 119.42521,91.512545 118.82508,91.212504 118.12493,91.212504   C 116.92468,91.212504 115.92447,91.812586 115.92447,92.912737   C 115.92447,94.012888 116.92468,94.312929 117.32476,94.412943   L 117.62483,94.512957   C 118.32497,94.712984 118.72506,94.913011 118.72506,95.41308   C 118.72506,95.713121 118.425,96.21319 117.62483,96.21319   C 116.82466,96.21319 116.32455,95.813135 116.12451,95.713121   L 116.02449,95.713121   C 116.02449,96.113176 116.02449,96.21319 116.02449,96.613244   L 116.02449,96.713258   C 116.12451,96.713258 116.12451,96.713258 116.22453,96.713258   C 116.62462,96.913286 117.12472,97.013299 117.62483,97.013299   C 118.02491,97.013299 118.82508,97.013299 119.32519,96.513231   C 119.82529,96.113176 119.92531,95.713121 119.92531,95.213052   C 119.92531,94.112902 118.9251,93.812861 118.52502,93.712847   L 118.12493,93.512819   z "
     id="path91" />
  <path
     style="fill:#000000;fill-rule:nonzero;fill-opacity:1;stroke:none;"
     clip-path="url(#clipEmfPath1)"
     d="  M 122.82592,93.512819   L 122.82592,93.512819   C 122.12578,93.312792 121.72569,93.212778 121.72569,92.71271   C 121.72569,92.412669 122.02576,92.212641 122.32582,92.112627   C 122.52586,92.112627 122.62588,92.112627 122.82592,92.112627   C 123.42605,92.112627 123.92616,92.312655 124.1262,92.512682   L 124.22622,92.412669   C 124.22622,92.012614 124.32624,92.012614 124.32624,91.612559   L 124.22622,91.512545   C 124.1262,91.512545 123.52607,91.212504 122.7259,91.212504   C 121.52565,91.212504 120.62546,91.812586 120.62546,92.912737   C 120.62546,94.012888 121.52565,94.312929 122.02576,94.412943   L 122.32582,94.512957   C 123.02597,94.712984 123.42605,94.913011 123.42605,95.41308   C 123.42605,95.713121 123.12599,96.21319 122.32582,96.21319   C 121.42563,96.21319 121.02554,95.813135 120.8255,95.713121   L 120.72548,95.713121   C 120.72548,96.113176 120.72548,96.21319 120.62546,96.613244   L 120.72548,96.713258   C 120.72548,96.713258 120.8255,96.713258 120.8255,96.713258   C 121.22559,96.913286 121.72569,97.013299 122.32582,97.013299   C 122.7259,97.013299 123.42605,97.013299 124.02618,96.513231   C 124.42626,96.113176 124.6263,95.713121 124.6263,95.213052   C 124.6263,94.112902 123.62609,93.812861 123.22601,93.712847   L 122.82592,93.512819   z "
     id="path93" />
  <path
     style="fill:#000000;fill-rule:nonzero;fill-opacity:1;stroke:none;"
     clip-path="url(#clipEmfPath1)"
     d="  M 126.82677,96.813272   L 126.82677,96.813272   C 126.82677,96.113176 126.82677,95.813135 126.82677,93.812861   C 126.82677,92.512682 126.82677,91.9126 126.82677,91.412531   L 126.72675,91.312518   C 126.22664,91.412531 126.0266,91.412531 125.62652,91.512545   L 125.52649,91.612559   C 125.62652,92.212641 125.62652,92.612696 125.62652,94.61297   C 125.62652,95.813135 125.62652,96.313203 125.62652,96.813272   L 125.62652,96.913286   C 126.12662,96.913286 126.22664,96.913286 126.82677,96.913286   L 126.82677,96.813272   z  M 126.92679,89.712298   L 126.92679,89.712298   C 126.82677,89.312244 126.82677,89.21223 126.92679,88.712161   L 126.82677,88.712161   C 126.32666,88.712161 126.22664,88.712161 125.62652,88.812175   L 125.52649,88.812175   C 125.52649,89.112216 125.62652,89.21223 125.62652,89.412257   C 125.62652,89.612285 125.62652,89.712298 125.52649,89.812312   L 125.62652,89.912326   C 126.12662,89.912326 126.22664,89.812312 126.82677,89.812312   L 126.92679,89.712298   z "
     id="path95" />
  <path
     style="fill:#000000;fill-rule:nonzero;fill-opacity:1;stroke:none;"
     clip-path="url(#clipEmfPath1)"
     d="  M 133.02808,96.813272   L 133.02808,96.813272   C 133.02808,96.413217 133.02808,95.913148 133.02808,94.712984   L 133.02808,93.412806   C 133.02808,92.812723 132.92806,92.512682 132.82804,92.212641   C 132.72801,91.9126 132.52797,91.612559 132.22791,91.512545   C 131.92785,91.312518 131.62778,91.312518 131.32772,91.312518   C 130.42753,91.312518 129.72738,91.712573 129.42732,91.9126   L 129.52734,91.412531   L 129.42732,91.312518   C 128.92721,91.412531 128.82719,91.412531 128.32709,91.512545   L 128.22706,91.612559   C 128.22706,92.312655 128.32709,93.212778 128.32709,94.913011   C 128.32709,95.713121 128.32709,96.21319 128.32709,96.813272   L 128.32709,96.913286   C 128.92721,96.913286 128.92721,96.913286 129.52734,96.913286   L 129.52734,96.813272   C 129.42732,95.613107 129.42732,94.61297 129.42732,92.812723   C 129.72738,92.512682 130.22749,92.212641 130.82761,92.212641   C 131.02766,92.212641 131.62778,92.212641 131.82782,93.012751   C 131.92785,93.212778 131.92785,93.312792 131.92785,94.913011   C 131.92785,95.41308 131.92785,96.013162 131.92785,96.513231   C 131.92785,96.613244 131.82782,96.713258 131.82782,96.813272   L 131.92785,96.913286   C 132.42795,96.913286 132.52797,96.913286 133.02808,96.913286   L 133.02808,96.813272   z "
     id="path97" />
  <path
     style="fill:#000000;fill-rule:nonzero;fill-opacity:1;stroke:none;"
     clip-path="url(#clipEmfPath1)"
     d="  M 136.12873,95.113039   L 136.12873,95.113039   C 136.22875,95.113039 136.4288,95.113039 136.52882,95.113039   C 137.92911,95.113039 138.62926,94.312929 138.62926,93.312792   C 138.62926,92.912737 138.52924,92.412669 138.12915,92.112627   L 139.02934,92.212641   L 139.12937,92.112627   C 139.12937,91.812586 139.12937,91.812586 139.12937,91.412531   L 139.12937,91.412531   C 138.3292,91.412531 138.12915,91.412531 137.52903,91.412531   L 137.22896,91.312518   C 137.02892,91.312518 136.82888,91.312518 136.62884,91.312518   C 136.02871,91.312518 135.0285,91.412531 134.52839,92.412669   C 134.32835,92.71271 134.22833,93.012751 134.22833,93.312792   C 134.22833,94.012888 134.52839,94.61297 135.32856,94.913011   C 135.0285,95.313066 134.92848,95.513094 134.52839,96.013162   L 134.62842,96.113176   C 134.82846,96.21319 134.82846,96.21319 135.0285,96.313203   C 134.62842,96.713258 134.12831,97.113313 134.12831,97.913423   C 134.12831,98.813546 134.92848,99.513642 136.52882,99.513642   C 138.22918,99.513642 139.02934,98.613519 139.02934,97.613382   C 139.02934,96.513231 138.02913,96.21319 137.72907,96.113176   C 137.42901,96.013162 136.02871,95.713121 135.72865,95.613107   L 136.12873,95.113039   z  M 137.52903,93.312792   L 137.52903,93.312792   C 137.52903,93.812861 137.32899,94.412943 136.4288,94.412943   C 135.62863,94.412943 135.32856,93.812861 135.32856,93.312792   C 135.32856,92.612696 135.82867,92.112627 136.4288,92.112627   C 137.22896,92.112627 137.52903,92.71271 137.52903,93.312792   z  M 136.52882,96.813272   L 136.52882,96.813272   C 137.22896,97.013299 137.82909,97.213327 137.82909,97.913423   C 137.82909,98.413491 137.42901,98.813546 136.62884,98.813546   C 135.52861,98.813546 135.22854,98.213464 135.22854,97.813409   C 135.22854,97.31334 135.42858,97.013299 135.82867,96.613244   L 136.52882,96.813272   z "
     id="path99" />
  <path
     style="fill:#000000;fill-rule:nonzero;fill-opacity:1;stroke:none;"
     clip-path="url(#clipEmfPath1)"
     d="  M 54.211442,55.307582   L 54.211442,55.307582   C 55.611738,55.307582 55.81178,55.307582 56.211864,55.307582   C 57.312096,55.207568 58.712392,54.807513 59.312519,53.10728   C 59.612582,52.507198 59.612582,52.00713 59.612582,51.407047   C 59.612582,50.906979 59.612582,49.206746 58.212286,48.306622   C 57.412118,47.70654 56.311885,47.806554 55.011611,47.806554   L 53.511294,47.806554   L 53.411273,47.906567   C 53.511294,48.706677 53.511294,49.506787 53.511294,52.507198   C 53.511294,53.607349 53.511294,54.407459 53.511294,55.307582   L 53.511294,55.307582   L 54.211442,55.307582   z  M 54.711548,54.407459   L 54.711548,54.407459   C 54.711548,53.507335 54.711548,53.207294 54.711548,51.307034   C 54.711548,49.706814 54.711548,49.306759 54.711548,48.606663   C 55.011611,48.606663 55.311674,48.606663 55.711759,48.606663   C 56.111843,48.606663 57.012033,48.606663 57.61216,49.206746   C 58.412329,49.806828 58.412329,50.906979 58.412329,51.307034   C 58.412329,51.907116 58.312308,52.407184 58.112265,52.807239   C 57.512139,54.507472 56.111843,54.407459 54.711548,54.407459   z "
     id="path101" />
  <path
     style="fill:#000000;fill-rule:nonzero;fill-opacity:1;stroke:none;"
     clip-path="url(#clipEmfPath1)"
     d="  M 65.013722,52.107143   L 65.013722,52.107143   C 65.013722,51.607075 65.013722,51.006992 64.913701,50.706951   C 64.713659,49.906842 63.91349,49.6068 63.113321,49.6068   C 62.513194,49.6068 61.913068,49.806828 61.312941,50.006855   L 61.21292,50.106869   C 61.21292,50.306896 61.21292,50.306896 61.21292,50.806965   L 61.312941,50.906979   C 61.713025,50.706951 62.213131,50.506924 62.913279,50.506924   C 63.413384,50.506924 63.713448,50.706951 63.813469,50.906979   C 63.91349,51.006992 63.91349,51.20702 63.91349,51.507061   L 63.713448,51.607075   C 61.813046,51.807102 60.612793,52.207157 60.612793,53.707363   C 60.612793,54.7075 61.412962,55.407596 62.413173,55.407596   C 63.213342,55.407596 63.713448,55.007541 63.91349,54.907527   L 63.91349,55.307582   L 63.91349,55.307582   C 64.413595,55.307582 64.513616,55.307582 65.013722,55.307582   L 65.113743,55.207568   C 65.013722,54.507472 65.013722,54.407459 65.013722,53.10728   L 65.013722,52.107143   z  M 63.91349,52.307171   L 63.91349,52.307171   L 63.91349,54.107417   C 63.813469,54.207431 63.413384,54.607486 62.713236,54.607486   C 61.713025,54.607486 61.713025,53.607349 61.713025,53.607349   C 61.713025,52.607212 62.713236,52.507198 63.813469,52.307171   L 63.91349,52.307171   z "
     id="path103" />
  <path
     style="fill:#000000;fill-rule:nonzero;fill-opacity:1;stroke:none;"
     clip-path="url(#clipEmfPath1)"
     d="  M 68.814524,54.407459   L 68.814524,54.407459   C 68.714503,54.407459 68.614482,54.507472 68.314419,54.507472   C 67.814313,54.507472 67.714292,54.207431 67.714292,53.507335   C 67.714292,53.307308 67.714292,52.707225 67.714292,52.607212   L 67.714292,50.606938   C 68.314419,50.606938 68.314419,50.606938 68.914545,50.606938   L 68.914545,50.606938   C 68.914545,50.206883 68.914545,50.106869 69.014566,49.806828   L 68.914545,49.806828   C 68.314419,49.806828 68.214398,49.806828 67.714292,49.806828   C 67.714292,49.006718 67.714292,48.906704 67.814313,48.206609   L 67.714292,48.106595   C 67.214186,48.306622 67.114165,48.306622 66.61406,48.406636   L 66.61406,48.50665   C 66.61406,48.706677 66.61406,48.906704 66.61406,49.106732   C 66.61406,49.306759 66.61406,49.6068 66.61406,49.806828   C 66.313996,49.806828 66.113954,49.806828 65.913912,49.806828   L 65.813891,49.806828   C 65.813891,50.206883 65.813891,50.306896 65.813891,50.606938   L 65.813891,50.706951   C 66.213975,50.706951 66.213975,50.706951 66.61406,50.706951   L 66.61406,53.007267   C 66.61406,54.207431 66.61406,54.507472 66.814102,54.807513   C 67.114165,55.307582 67.814313,55.307582 68.014355,55.307582   C 68.41444,55.307582 68.614482,55.307582 68.814524,55.307582   L 68.914545,55.207568   C 68.914545,54.907527 68.914545,54.807513 68.914545,54.507472   L 68.814524,54.407459   z "
     id="path105" />
  <path
     style="fill:#000000;fill-rule:nonzero;fill-opacity:1;stroke:none;"
     clip-path="url(#clipEmfPath1)"
     d="  M 73.915601,52.107143   L 73.915601,52.107143   C 73.915601,51.607075 73.915601,51.006992 73.81558,50.706951   C 73.615538,49.906842 72.815369,49.6068 72.0152,49.6068   C 71.415073,49.6068 70.814946,49.806828 70.21482,50.006855   L 70.114799,50.106869   C 70.114799,50.306896 70.114799,50.306896 70.114799,50.806965   L 70.21482,50.906979   C 70.614904,50.706951 71.11501,50.506924 71.815158,50.506924   C 72.315263,50.506924 72.615326,50.706951 72.715348,50.906979   C 72.815369,51.006992 72.815369,51.20702 72.815369,51.507061   L 72.615326,51.607075   C 70.714925,51.807102 69.514672,52.207157 69.514672,53.707363   C 69.514672,54.7075 70.21482,55.407596 71.315052,55.407596   C 72.115221,55.407596 72.615326,55.007541 72.815369,54.907527   L 72.815369,55.307582   L 72.815369,55.307582   C 73.315474,55.307582 73.415495,55.307582 73.915601,55.307582   L 73.915601,55.207568   C 73.915601,54.507472 73.915601,54.407459 73.915601,53.10728   L 73.915601,52.107143   z  M 72.815369,52.307171   L 72.815369,52.307171   L 72.815369,54.107417   C 72.715348,54.207431 72.315263,54.607486 71.615115,54.607486   C 70.614904,54.607486 70.614904,53.607349 70.614904,53.607349   C 70.614904,52.607212 71.615115,52.507198 72.715348,52.307171   L 72.815369,52.307171   z "
     id="path107" />
  <path
     style="fill:#000000;fill-rule:nonzero;fill-opacity:1;stroke:none;"
     clip-path="url(#clipEmfPath1)"
     d="  M 83.317585,55.207568   L 83.317585,55.207568   C 83.217564,54.607486 83.217564,54.507472 83.217564,53.607349   L 83.217564,53.10728   L 83.217564,51.907116   C 83.217564,51.107006 83.217564,51.006992 83.117543,50.806965   C 83.017522,50.40691 82.717459,50.006855 82.217353,49.806828   C 82.017311,49.706814 81.817269,49.706814 81.517205,49.706814   C 80.617015,49.706814 80.016889,50.106869 79.616804,50.306896   C 79.616804,49.206746 79.616804,48.006581 79.716825,46.90643   L 79.616804,46.806417   C 79.21672,46.90643 79.016678,47.006444 78.516572,47.106458   L 78.416551,47.106458   C 78.516572,47.606526 78.516572,47.906567 78.516572,48.806691   C 78.516572,49.706814 78.516572,50.606938 78.516572,51.507061   C 78.516572,53.507335 78.516572,54.507472 78.516572,55.307582   L 78.516572,55.307582   C 79.116699,55.307582 79.21672,55.307582 79.716825,55.307582   L 79.716825,55.207568   C 79.716825,54.007404 79.616804,53.007267 79.716825,51.20702   C 80.016889,50.906979 80.516994,50.606938 81.117121,50.606938   C 81.617226,50.606938 81.91729,50.906979 82.017311,51.407047   C 82.117332,51.607075 82.117332,51.907116 82.117332,52.107143   L 82.117332,53.207294   C 82.117332,53.807376 82.117332,54.407459 82.117332,54.907527   L 82.117332,55.307582   L 82.117332,55.307582   C 82.617438,55.307582 82.717459,55.307582 83.217564,55.307582   L 83.317585,55.207568   z "
     id="path109" />
  <path
     style="fill:#000000;fill-rule:nonzero;fill-opacity:1;stroke:none;"
     clip-path="url(#clipEmfPath1)"
     d="  M 88.818746,52.107143   L 88.818746,52.107143   C 88.818746,51.607075 88.818746,51.006992 88.718725,50.706951   C 88.518683,49.906842 87.718514,49.6068 86.918345,49.6068   C 86.318219,49.6068 85.718092,49.806828 85.117965,50.006855   L 85.017944,50.106869   C 85.017944,50.306896 85.017944,50.306896 85.017944,50.806965   L 85.117965,50.906979   C 85.51805,50.706951 86.018155,50.506924 86.718303,50.506924   C 87.218409,50.506924 87.518472,50.706951 87.618493,50.906979   C 87.718514,51.006992 87.718514,51.20702 87.718514,51.507061   L 87.518472,51.607075   C 85.618071,51.807102 84.417818,52.207157 84.417818,53.707363   C 84.417818,54.7075 85.117965,55.407596 86.218198,55.407596   C 87.018366,55.407596 87.518472,55.007541 87.718514,54.907527   L 87.718514,55.307582   L 87.718514,55.307582   C 88.21862,55.307582 88.318641,55.307582 88.818746,55.307582   L 88.818746,55.207568   C 88.818746,54.507472 88.818746,54.407459 88.818746,53.10728   L 88.818746,52.107143   z  M 87.718514,52.307171   L 87.718514,52.307171   L 87.718514,54.107417   C 87.618493,54.207431 87.218409,54.607486 86.518261,54.607486   C 85.51805,54.607486 85.51805,53.607349 85.51805,53.607349   C 85.51805,52.607212 86.518261,52.507198 87.618493,52.307171   L 87.718514,52.307171   z "
     id="path111" />
  <path
     style="fill:#000000;fill-rule:nonzero;fill-opacity:1;stroke:none;"
     clip-path="url(#clipEmfPath1)"
     d="  M 95.020055,55.207568   L 95.020055,55.207568   C 95.020055,54.807513 95.020055,54.307445 95.020055,53.10728   L 95.020055,51.907116   C 95.020055,51.20702 94.920034,50.906979 94.820013,50.606938   C 94.719992,50.306896 94.51995,50.006855 94.219886,49.906842   C 93.919823,49.706814 93.61976,49.706814 93.319696,49.706814   C 92.419506,49.706814 91.719359,50.106869 91.419295,50.306896   L 91.519316,49.806828   L 91.419295,49.706814   C 90.91919,49.806828 90.819169,49.806828 90.319063,49.906842   L 90.219042,50.006855   C 90.319063,50.706951 90.319063,51.607075 90.319063,53.307308   C 90.319063,54.107417 90.319063,54.7075 90.319063,55.307582   L 90.319063,55.307582   C 90.91919,55.307582 90.91919,55.307582 91.519316,55.307582   L 91.519316,55.207568   C 91.419295,54.007404 91.419295,53.007267 91.419295,51.20702   C 91.719359,50.906979 92.219464,50.606938 92.819591,50.606938   C 93.019633,50.606938 93.61976,50.606938 93.819802,51.407047   C 93.919823,51.607075 93.919823,51.707088 93.919823,53.307308   C 93.919823,53.90739 93.919823,54.407459 93.919823,54.907527   C 93.919823,55.007541 93.819802,55.107555 93.819802,55.307582   L 93.919823,55.307582   C 94.419929,55.307582 94.51995,55.307582 95.020055,55.307582   L 95.020055,55.207568   z "
     id="path113" />
  <path
     style="fill:#000000;fill-rule:nonzero;fill-opacity:1;stroke:none;"
     clip-path="url(#clipEmfPath1)"
     d="  M 100.02111,47.106458   L 100.02111,47.106458   C 100.12113,47.70654 100.12113,48.406636 100.12113,49.706814   C 99.821069,49.706814 99.721047,49.706814 99.521005,49.706814   C 98.920879,49.706814 97.920667,49.706814 97.120499,50.40691   C 96.720414,50.806965 96.220309,51.507061 96.220309,52.707225   C 96.220309,54.307445 97.22052,55.407596 98.620815,55.407596   C 99.420984,55.407596 99.821069,55.107555 100.12113,54.907527   L 100.02111,55.307582   L 100.12113,55.307582   C 100.62124,55.307582 100.72126,55.307582 101.22136,55.307582   L 101.22136,55.207568   C 101.22136,54.507472 101.22136,53.707363 101.22136,52.107143   C 101.22136,51.006992 101.22136,48.406636 101.22136,46.90643   L 101.22136,46.806417   C 100.72126,46.90643 100.62124,47.006444 100.12113,47.106458   L 100.02111,47.106458   z  M 100.12113,54.007404   L 100.12113,54.007404   C 99.92109,54.107417 99.521005,54.507472 98.920879,54.507472   C 98.320752,54.507472 98.020689,54.207431 97.820646,54.007404   C 97.520583,53.707363 97.420562,53.307308 97.420562,52.707225   C 97.420562,51.707088 97.820646,51.20702 98.020689,51.006992   C 98.520794,50.506924 99.220942,50.506924 99.521005,50.506924   C 99.821069,50.506924 99.92109,50.506924 100.12113,50.506924   C 100.12113,52.307171 100.12113,52.607212 100.12113,54.007404   z "
     id="path115" />
  <path
     style="fill:#000000;fill-rule:nonzero;fill-opacity:1;stroke:none;"
     clip-path="url(#clipEmfPath1)"
     d="  M 103.92193,55.207568   L 103.92193,55.207568   C 103.92193,54.207431 103.82191,53.407321 103.82191,51.107006   C 103.82191,49.706814 103.82191,48.306622 103.92193,46.90643   L 103.92193,46.806417   C 103.32181,47.006444 103.22179,47.006444 102.72168,47.106458   L 102.62166,47.106458   C 102.8217,48.50665 102.8217,50.006855 102.8217,51.507061   C 102.8217,53.507335 102.72168,54.507472 102.72168,55.307582   L 102.8217,55.307582   C 103.22179,55.307582 103.42183,55.307582 103.92193,55.307582   L 103.92193,55.207568   z "
     id="path117" />
  <path
     style="fill:#000000;fill-rule:nonzero;fill-opacity:1;stroke:none;"
     clip-path="url(#clipEmfPath1)"
     d="  M 106.6225,55.207568   L 106.6225,55.207568   C 106.6225,54.507472 106.52248,54.207431 106.52248,52.307171   C 106.52248,50.906979 106.6225,50.306896 106.6225,49.806828   L 106.52248,49.706814   C 106.02238,49.806828 105.82234,49.806828 105.42225,49.906842   L 105.32223,50.006855   C 105.42225,50.606938 105.42225,51.006992 105.42225,53.007267   C 105.42225,54.207431 105.42225,54.7075 105.32223,55.307582   L 105.42225,55.307582   C 105.92236,55.307582 106.02238,55.307582 106.6225,55.307582   L 106.6225,55.207568   z  M 106.6225,48.206609   L 106.6225,48.206609   C 106.6225,47.70654 106.6225,47.606526 106.6225,47.206471   L 106.6225,47.106458   C 106.02238,47.106458 105.92236,47.206471 105.42225,47.206471   L 105.32223,47.306485   C 105.32223,47.506513 105.32223,47.606526 105.32223,47.806554   C 105.32223,48.006581 105.32223,48.106595 105.32223,48.306622   L 105.42225,48.306622   C 105.92236,48.306622 106.02238,48.306622 106.6225,48.206609   L 106.6225,48.206609   z "
     id="path119" />
  <path
     style="fill:#000000;fill-rule:nonzero;fill-opacity:1;stroke:none;"
     clip-path="url(#clipEmfPath1)"
     d="  M 112.82381,55.207568   L 112.82381,55.207568   C 112.82381,54.807513 112.82381,54.307445 112.72379,53.10728   L 112.72379,51.907116   C 112.72379,51.20702 112.72379,50.906979 112.62377,50.606938   C 112.52375,50.306896 112.22369,50.006855 112.02364,49.906842   C 111.72358,49.706814 111.3235,49.706814 111.12345,49.706814   C 110.22326,49.706814 109.52312,50.106869 109.22305,50.306896   L 109.22305,49.806828   L 109.22305,49.706814   C 108.72295,49.806828 108.62293,49.806828 108.0228,49.906842   L 108.0228,50.006855   C 108.0228,50.706951 108.12282,51.607075 108.12282,53.307308   C 108.12282,54.107417 108.12282,54.7075 108.12282,55.307582   L 108.12282,55.307582   C 108.62293,55.307582 108.72295,55.307582 109.22305,55.307582   L 109.32307,55.207568   C 109.22305,54.007404 109.22305,53.007267 109.22305,51.20702   C 109.52312,50.906979 110.02322,50.606938 110.62335,50.606938   C 110.82339,50.606938 111.42352,50.606938 111.62356,51.407047   C 111.62356,51.607075 111.62356,51.707088 111.62356,53.307308   C 111.62356,53.90739 111.62356,54.407459 111.62356,54.907527   C 111.62356,55.007541 111.62356,55.107555 111.62356,55.307582   L 111.72358,55.307582   C 112.22369,55.307582 112.22369,55.307582 112.72379,55.307582   L 112.82381,55.207568   z "
     id="path121" />
  <path
     style="fill:#000000;fill-rule:nonzero;fill-opacity:1;stroke:none;"
     clip-path="url(#clipEmfPath1)"
     d="  M 115.82445,53.507335   L 115.82445,53.507335   C 116.02449,53.507335 116.12451,53.607349 116.32455,53.607349   C 117.62483,53.607349 118.425,52.707225 118.425,51.707088   C 118.425,51.307034 118.32497,50.906979 117.92489,50.506924   L 118.82508,50.606938   L 118.82508,50.506924   C 118.9251,50.206883 118.9251,50.206883 118.9251,49.806828   L 118.82508,49.806828   C 118.12493,49.806828 117.82487,49.806828 117.22474,49.806828   L 117.0247,49.806828   C 116.82466,49.806828 116.52459,49.806828 116.42457,49.806828   C 115.82445,49.806828 114.72421,49.806828 114.22411,50.806965   C 114.12409,51.107006 114.02407,51.407047 114.02407,51.707088   C 114.02407,52.407184 114.32413,53.007267 115.02428,53.307308   C 114.82424,53.707363 114.62419,53.90739 114.32413,54.407459   L 114.32413,54.507472   C 114.52417,54.607486 114.62419,54.607486 114.82424,54.7075   C 114.42415,55.107555 113.92405,55.507609 113.92405,56.307719   C 113.92405,57.207842 114.72421,57.907938 116.32455,57.907938   C 118.02491,57.907938 118.72506,57.007815 118.72506,56.107692   C 118.72506,54.907527 117.72485,54.607486 117.52481,54.507472   C 117.22474,54.407459 115.82445,54.107417 115.52438,54.007404   L 115.82445,53.507335   z  M 117.32476,51.707088   L 117.32476,51.707088   C 117.32476,52.207157 117.12472,52.907253 116.22453,52.907253   C 115.42436,52.907253 115.1243,52.207157 115.1243,51.707088   C 115.1243,51.006992 115.52438,50.506924 116.22453,50.506924   C 117.0247,50.506924 117.32476,51.107006 117.32476,51.707088   z  M 116.32455,55.207568   L 116.32455,55.207568   C 117.0247,55.407596 117.62483,55.607623 117.62483,56.307719   C 117.62483,56.807788 117.22474,57.207842 116.32455,57.207842   C 115.22432,57.207842 114.92426,56.60776 114.92426,56.207705   C 114.92426,55.707637 115.22432,55.407596 115.6244,55.007541   L 116.32455,55.207568   z "
     id="path123" />
  <path
     style="fill:#7ed6f6;fill-rule:nonzero;fill-opacity:1;stroke:none;"
     clip-path="url(#clipEmfPath1)"
     d="  M 4.4009289,127.41747   L 4.4009289,127.41747   L 174.53684,127.41747   L 174.53684,151.92083   L 4.4009289,151.92083   L 4.4009289,127.41747   z "
     id="path125" />
  <path
     style="fill:none;stroke:#7ed6f6;stroke-width:1.2002534px;stroke-linecap:butt;stroke-linejoin:miter;stroke-miterlimit:3;stroke-dasharray:none;stroke-opacity:1;"
     clip-path="url(#clipEmfPath2)"
     d="  M 4.4009289,127.41747   L 4.4009289,127.41747   L 174.53684,127.41747   L 174.53684,151.92083   L 4.4009289,151.92083   L 4.4009289,127.41747   z "
     id="path127" />
  <path
     style="fill:#fefefe;fill-rule:nonzero;fill-opacity:1;stroke:none;"
     clip-path="url(#clipEmfPath1)"
     d="  M 0.60012666,123.01686   L 0.60012666,123.01686   L 170.63602,123.01686   L 170.63602,147.62024   L 0.60012666,147.62024   L 0.60012666,123.01686   z "
     id="path129" />
  <path
     style="fill:none;stroke:#00adee;stroke-width:1.2002534px;stroke-linecap:butt;stroke-linejoin:miter;stroke-miterlimit:3;stroke-dasharray:none;stroke-opacity:1;"
     clip-path="url(#clipEmfPath2)"
     d="  M 0.60012666,123.01686   L 0.60012666,123.01686   L 170.63602,123.01686   L 170.63602,147.62024   L 0.60012666,147.62024   L 0.60012666,123.01686   z "
     id="path131" />
  <path
     style="fill:#000000;fill-rule:nonzero;fill-opacity:1;stroke:none;"
     clip-path="url(#clipEmfPath1)"
     d="  M 65.813891,139.71915   L 65.813891,139.71915   C 67.214186,139.71915 67.314208,139.71915 67.814313,139.61914   C 68.814524,139.51913 70.21482,139.21909 70.914968,137.41884   C 71.11501,136.91877 71.215031,136.31869 71.215031,135.71861   C 71.215031,135.31855 71.215031,133.61832 69.814735,132.71819   C 68.914545,132.11811 67.814313,132.11811 66.61406,132.11811   L 65.013722,132.21813   L 65.013722,132.21813   C 65.013722,133.01824 65.113743,133.91836 65.113743,136.91877   C 65.113743,138.01892 65.013722,138.71902 65.013722,139.61914   L 65.113743,139.71915   L 65.813891,139.71915   z  M 66.213975,138.81903   L 66.213975,138.81903   C 66.213975,137.81889 66.213975,137.61887 66.213975,135.61859   C 66.213975,134.01837 66.213975,133.71833 66.213975,133.01824   C 66.61406,133.01824 66.914123,133.01824 67.314208,133.01824   C 67.714292,133.01824 68.514461,133.01824 69.214609,133.5183   C 69.914756,134.2184 69.914756,135.31855 69.914756,135.61859   C 69.914756,136.21867 69.914756,136.71874 69.714714,137.21881   C 69.014566,138.81903 67.714292,138.81903 66.213975,138.81903   z "
     id="path133" />
  <path
     style="fill:#000000;fill-rule:nonzero;fill-opacity:1;stroke:none;"
     clip-path="url(#clipEmfPath1)"
     d="  M 76.51615,136.4187   L 76.51615,136.4187   C 76.51615,136.01865 76.51615,135.41856 76.51615,135.11852   C 76.216086,134.31841 75.515939,134.01837 74.71577,134.01837   C 74.115643,134.01837 73.515516,134.11839 72.91539,134.31841   L 72.815369,134.41843   C 72.815369,134.61845 72.815369,134.71847 72.815369,135.21854   L 72.91539,135.21854   C 73.315474,135.01851 73.81558,134.81848 74.515728,134.81848   C 75.015833,134.81848 75.215875,135.01851 75.315896,135.21854   C 75.415918,135.41856 75.415918,135.61859 75.415918,135.91863   L 75.315896,135.91863   C 73.415495,136.11866 72.215242,136.61873 72.215242,138.01892   C 72.215242,139.11907 72.91539,139.81917 74.015622,139.81917   C 74.815791,139.81917 75.215875,139.41911 75.515939,139.21909   L 75.415918,139.61914   L 75.515939,139.71915   C 76.016044,139.71915 76.116065,139.61914 76.616171,139.61914   L 76.616171,139.61914   C 76.616171,138.91904 76.51615,138.81903 76.51615,137.51885   L 76.51615,136.4187   z  M 75.515939,136.71874   L 75.515939,136.71874   L 75.515939,138.41898   C 75.315896,138.51899 75.015833,138.91904 74.315685,138.91904   C 73.315474,138.91904 73.315474,138.01892 73.315474,137.91891   C 73.315474,137.01878 74.315685,136.81876 75.415918,136.71874   L 75.515939,136.71874   z "
     id="path135" />
  <path
     style="fill:#000000;fill-rule:nonzero;fill-opacity:1;stroke:none;"
     clip-path="url(#clipEmfPath1)"
     d="  M 80.416973,138.71902   L 80.416973,138.71902   C 80.316952,138.81903 80.11691,138.81903 79.916868,138.81903   C 79.416762,138.81903 79.316741,138.619 79.316741,137.81889   C 79.316741,137.71888 79.316741,137.1188 79.316741,136.91877   L 79.316741,135.01851   C 79.816846,135.01851 79.916868,135.01851 80.416973,135.01851   L 80.516994,134.9185   C 80.516994,134.61845 80.516994,134.51844 80.516994,134.2184   L 80.516994,134.11839   C 79.916868,134.11839 79.716825,134.11839 79.316741,134.11839   C 79.316741,133.41829 79.316741,133.21826 79.316741,132.51817   L 79.316741,132.51817   C 78.816635,132.61818 78.716614,132.71819 78.216509,132.81821   L 78.116488,132.91822   C 78.116488,133.11825 78.116488,133.31828 78.216509,133.5183   C 78.216509,133.71833 78.216509,133.91836 78.216509,134.11839   C 77.816424,134.11839 77.716403,134.11839 77.41634,134.11839   L 77.41634,134.2184   C 77.41634,134.51844 77.41634,134.61845 77.41634,135.01851   L 77.41634,135.01851   C 77.816424,135.01851 77.816424,135.01851 78.216509,135.01851   L 78.116488,137.31882   C 78.116488,138.619 78.116488,138.81903 78.31653,139.11907   C 78.716614,139.71915 79.316741,139.71915 79.616804,139.71915   C 80.016889,139.71915 80.216931,139.71915 80.416973,139.61914   L 80.416973,139.51913   C 80.416973,139.21909 80.416973,139.21909 80.516994,138.81903   L 80.416973,138.71902   z "
     id="path137" />
  <path
     style="fill:#000000;fill-rule:nonzero;fill-opacity:1;stroke:none;"
     clip-path="url(#clipEmfPath1)"
     d="  M 85.418029,136.4187   L 85.418029,136.4187   C 85.418029,136.01865 85.418029,135.41856 85.418029,135.11852   C 85.117965,134.31841 84.417818,134.01837 83.617649,134.01837   C 83.017522,134.01837 82.417395,134.11839 81.817269,134.31841   L 81.717248,134.41843   C 81.717248,134.61845 81.717248,134.71847 81.717248,135.21854   L 81.717248,135.21854   C 82.217353,135.01851 82.717459,134.81848 83.417606,134.81848   C 83.917712,134.81848 84.117754,135.01851 84.217775,135.21854   C 84.317796,135.41856 84.317796,135.61859 84.317796,135.91863   L 84.217775,135.91863   C 82.217353,136.11866 81.117121,136.61873 81.117121,138.01892   C 81.117121,139.11907 81.817269,139.81917 82.917501,139.81917   C 83.71767,139.81917 84.117754,139.41911 84.317796,139.21909   L 84.317796,139.61914   L 84.417818,139.71915   C 84.917923,139.71915 84.917923,139.61914 85.418029,139.61914   L 85.51805,139.61914   C 85.418029,138.91904 85.418029,138.81903 85.418029,137.51885   L 85.418029,136.4187   z  M 84.317796,136.71874   L 84.317796,136.71874   L 84.317796,138.41898   C 84.217775,138.51899 83.817691,138.91904 83.217564,138.91904   C 82.217353,138.91904 82.217353,138.01892 82.217353,137.91891   C 82.217353,137.01878 83.217564,136.81876 84.317796,136.71874   L 84.317796,136.71874   z "
     id="path139" />
  <path
     style="fill:#000000;fill-rule:nonzero;fill-opacity:1;stroke:none;"
     clip-path="url(#clipEmfPath1)"
     d="  M 88.118599,139.71915   L 88.118599,139.71915   C 89.018789,139.71915 90.419084,139.71915 91.319274,138.619   C 91.919401,137.91891 91.919401,137.1188 91.919401,136.71874   C 91.919401,135.01851 90.91919,134.01837 89.618915,134.01837   C 88.818746,134.01837 88.318641,134.31841 88.118599,134.51844   L 88.118599,131.318   L 88.018578,131.21799   L 86.918345,131.41802   L 86.918345,131.51803   C 87.018366,132.51817 87.018366,133.31828 87.018366,135.21854   L 87.018366,136.81876   C 87.018366,138.21895 87.018366,138.91904 87.018366,139.61914   L 87.018366,139.71915   C 87.418451,139.71915 87.518472,139.71915 87.918556,139.71915   L 88.118599,139.71915   z  M 88.118599,138.81903   L 88.118599,138.81903   C 88.118599,137.21881 88.118599,136.91877 88.118599,135.31855   C 88.318641,135.11852 88.718725,134.9185 89.218831,134.9185   C 89.618915,134.9185 90.019,135.01851 90.319063,135.31855   C 90.619126,135.61859 90.819169,136.01865 90.819169,136.71874   C 90.819169,137.31882 90.519105,137.91891 90.219042,138.21895   C 89.618915,138.91904 88.718725,138.91904 88.418662,138.91904   L 88.118599,138.81903   z "
     id="path141" />
  <path
     style="fill:#000000;fill-rule:nonzero;fill-opacity:1;stroke:none;"
     clip-path="url(#clipEmfPath1)"
     d="  M 97.22052,136.4187   L 97.22052,136.4187   C 97.22052,136.01865 97.22052,135.41856 97.120499,135.11852   C 96.920456,134.31841 96.220309,134.01837 95.42014,134.01837   C 94.719992,134.01837 94.119865,134.11839 93.519739,134.31841   L 93.519739,134.41843   C 93.519739,134.61845 93.519739,134.71847 93.419717,135.21854   L 93.519739,135.21854   C 94.019844,135.01851 94.419929,134.81848 95.120076,134.81848   C 95.720203,134.81848 95.920245,135.01851 96.020266,135.21854   C 96.120287,135.41856 96.120287,135.61859 96.120287,135.91863   L 95.920245,135.91863   C 94.019844,136.11866 92.819591,136.61873 92.819591,138.01892   C 92.819591,139.11907 93.61976,139.81917 94.619971,139.81917   C 95.42014,139.81917 95.920245,139.41911 96.120287,139.21909   L 96.120287,139.61914   L 96.220309,139.71915   C 96.620393,139.71915 96.720414,139.61914 97.22052,139.61914   L 97.320541,139.61914   C 97.22052,138.91904 97.22052,138.81903 97.22052,137.51885   L 97.22052,136.4187   z  M 96.120287,136.71874   L 96.120287,136.71874   L 96.120287,138.41898   C 96.020266,138.51899 95.620182,138.91904 95.020055,138.91904   C 94.019844,138.91904 94.019844,138.01892 94.019844,137.91891   C 94.019844,137.01878 95.020055,136.81876 96.020266,136.71874   L 96.120287,136.71874   z "
     id="path143" />
  <path
     style="fill:#000000;fill-rule:nonzero;fill-opacity:1;stroke:none;"
     clip-path="url(#clipEmfPath1)"
     d="  M 100.62124,136.31869   L 100.62124,136.31869   C 99.92109,136.11866 99.521005,136.01865 99.521005,135.51858   C 99.521005,135.21854 99.821069,135.01851 100.12113,134.9185   C 100.22115,134.81848 100.4212,134.81848 100.52122,134.81848   C 101.22136,134.81848 101.62145,135.11852 101.92151,135.21854   L 102.02153,135.21854   C 102.02153,134.81848 102.02153,134.81848 102.12155,134.41843   L 102.02153,134.31841   C 101.82149,134.2184 101.32139,134.01837 100.52122,134.01837   C 99.320963,134.01837 98.420773,134.51844 98.420773,135.61859   C 98.420773,136.71874 99.320963,137.01878 99.721047,137.21881   L 100.12113,137.31882   C 100.72126,137.51885 101.22136,137.71888 101.22136,138.11893   C 101.22136,138.51899 100.9213,138.91904 100.02111,138.91904   C 99.220942,138.91904 98.820857,138.619 98.620815,138.41898   L 98.520794,138.51899   C 98.420773,138.91904 98.420773,138.91904 98.420773,139.3191   L 98.420773,139.41911   C 98.520794,139.51913 98.620815,139.51913 98.620815,139.51913   C 99.0209,139.71915 99.521005,139.81917 100.12113,139.81917   C 100.4212,139.81917 101.22136,139.71915 101.82149,139.3191   C 102.22158,138.91904 102.3216,138.41898 102.3216,138.01892   C 102.3216,136.91877 101.42141,136.61873 101.02132,136.4187   L 100.62124,136.31869   z "
     id="path145" />
  <path
     style="fill:#000000;fill-rule:nonzero;fill-opacity:1;stroke:none;"
     clip-path="url(#clipEmfPath1)"
     d="  M 107.72274,138.31896   L 107.72274,138.31896   C 107.62272,138.41898 107.32265,138.619 106.92257,138.81903   C 106.6225,138.91904 106.32244,138.91904 106.02238,138.91904   C 105.72231,138.91904 105.12219,138.91904 104.62208,138.41898   C 104.32202,137.91891 104.32202,137.41884 104.222,137.01878   C 106.02238,137.01878 106.32244,137.01878 107.92278,137.01878   L 108.0228,137.01878   C 108.0228,136.51871 108.0228,135.41856 107.42267,134.71847   C 107.12261,134.31841 106.52248,134.01837 105.72231,134.01837   C 104.32202,134.01837 103.12177,135.01851 103.12177,136.91877   C 103.12177,138.81903 104.222,139.81917 105.92236,139.81917   C 106.92257,139.81917 107.52269,139.51913 107.62272,139.41911   L 107.72274,139.3191   C 107.72274,138.91904 107.72274,138.81903 107.82276,138.41898   L 107.72274,138.31896   z  M 106.92257,136.21867   L 106.92257,136.21867   C 105.92236,136.21867 105.52227,136.21867 104.222,136.21867   C 104.32202,135.21854 105.02217,134.81848 105.62229,134.81848   C 106.1224,134.81848 106.6225,135.01851 106.82255,135.61859   C 106.92257,135.81862 106.92257,136.11866 106.92257,136.21867   z "
     id="path147" />
</svg>
