<?xml version="1.0" encoding="UTF-8" standalone="no"?>
<svg
   version="1.0"
   width="185.66mm"
   height="106.93mm"
   id="svg155"
   xmlns="http://www.w3.org/2000/svg"
   xmlns:svg="http://www.w3.org/2000/svg">
  <defs
     id="defs9">
    <clipPath
       clipPathUnits="userSpaceOnUse"
       id="clipEmfPath1">
      <path
         d="  M 0,0   L 0,0   L 0,405.8695   L 703.43221,405.8695   L 703.43221,0 "
         id="path2" />
    </clipPath>
    <clipPath
       clipPathUnits="userSpaceOnUse"
       id="clipEmfPath2">
      <path
         d="  M 0,0.20003425   L 0,0.20003425   L 0,405.8695   L 702.73218,405.8695   L 702.73218,0.20003425 "
         id="path5" />
    </clipPath>
    <pattern
       id="EMFhbasepattern"
       patternUnits="userSpaceOnUse"
       width="6"
       height="6"
       x="0"
       y="0" />
  </defs>
  <path
     style="fill:#7ed6f6;fill-rule:nonzero;fill-opacity:1;stroke:none;"
     clip-path="url(#clipEmfPath1)"
     d="  M 499.12285,175.23001   L 499.12285,175.23001   L 584.12675,175.23001   L 584.12675,209.23583   L 499.12285,209.23583   L 499.12285,175.23001   z "
     id="path11" />
  <path
     style="fill:none;stroke:#7ed6f6;stroke-width:1.200055px;stroke-linecap:butt;stroke-linejoin:miter;stroke-miterlimit:3;stroke-dasharray:none;stroke-opacity:1;"
     clip-path="url(#clipEmfPath1)"
     d="  M 499.12285,175.23001   L 499.12285,175.23001   L 584.12675,175.23001   L 584.12675,209.23583   L 499.12285,209.23583   L 499.12285,175.23001   z "
     id="path13" />
  <path
     style="fill:#7ed6f6;fill-rule:nonzero;fill-opacity:1;stroke:none;"
     clip-path="url(#clipEmfPath1)"
     d="  M 497.22277,109.01867   L 497.22277,109.01867   L 582.22666,109.01867   L 582.22666,143.02449   L 497.22277,143.02449   L 497.22277,109.01867   z "
     id="path15" />
  <path
     style="fill:none;stroke:#7ed6f6;stroke-width:1.200055px;stroke-linecap:butt;stroke-linejoin:miter;stroke-miterlimit:3;stroke-dasharray:none;stroke-opacity:1;"
     clip-path="url(#clipEmfPath1)"
     d="  M 497.22277,109.01867   L 497.22277,109.01867   L 582.22666,109.01867   L 582.22666,143.02449   L 497.22277,143.02449   L 497.22277,109.01867   z "
     id="path17" />
  <path
     style="fill:#7ed6f6;fill-rule:nonzero;fill-opacity:1;stroke:none;"
     clip-path="url(#clipEmfPath1)"
     d="  M 497.22277,245.14198   L 497.22277,245.14198   L 582.22666,245.14198   L 582.22666,279.1478   L 497.22277,279.1478   L 497.22277,245.14198   z "
     id="path19" />
  <path
     style="fill:none;stroke:#7ed6f6;stroke-width:1.200055px;stroke-linecap:butt;stroke-linejoin:miter;stroke-miterlimit:3;stroke-dasharray:none;stroke-opacity:1;"
     clip-path="url(#clipEmfPath1)"
     d="  M 497.22277,245.14198   L 497.22277,245.14198   L 582.22666,245.14198   L 582.22666,279.1478   L 497.22277,279.1478   L 497.22277,245.14198   z "
     id="path21" />
  <path
     style="fill:#7ed6f6;fill-rule:nonzero;fill-opacity:1;stroke:none;"
     clip-path="url(#clipEmfPath1)"
     d="  M 616.22821,177.13033   L 616.22821,177.13033   L 701.33211,177.13033   L 701.33211,211.13616   L 616.22821,211.13616   L 616.22821,177.13033   z "
     id="path23" />
  <path
     style="fill:none;stroke:#7ed6f6;stroke-width:1.200055px;stroke-linecap:butt;stroke-linejoin:miter;stroke-miterlimit:3;stroke-dasharray:none;stroke-opacity:1;"
     clip-path="url(#clipEmfPath2)"
     d="  M 616.22821,177.13033   L 616.22821,177.13033   L 701.33211,177.13033   L 701.33211,211.13616   L 616.22821,211.13616   L 616.22821,177.13033   z "
     id="path25" />
  <path
     style="fill:#7ed6f6;fill-rule:nonzero;fill-opacity:1;stroke:none;"
     clip-path="url(#clipEmfPath1)"
     d="  M 378.11731,177.13033   L 378.11731,177.13033   L 463.22121,177.13033   L 463.22121,211.13616   L 378.11731,211.13616   L 378.11731,177.13033   z "
     id="path27" />
  <path
     style="fill:none;stroke:#7ed6f6;stroke-width:1.200055px;stroke-linecap:butt;stroke-linejoin:miter;stroke-miterlimit:3;stroke-dasharray:none;stroke-opacity:1;"
     clip-path="url(#clipEmfPath1)"
     d="  M 378.11731,177.13033   L 378.11731,177.13033   L 463.22121,177.13033   L 463.22121,211.13616   L 378.11731,211.13616   L 378.11731,177.13033   z "
     id="path29" />
  <path
     style="fill:none;stroke:#000000;stroke-width:0.6000275px;stroke-linecap:butt;stroke-linejoin:miter;stroke-miterlimit:3;stroke-dasharray:none;stroke-opacity:1;"
     clip-path="url(#clipEmfPath1)"
     d="  M 533.32442,188.43227   L 533.32442,188.43227   L 652.32987,188.43227   M 535.92454,190.33259   L 535.92454,190.33259   L 416.91909,190.33259   M 535.92454,190.33259   L 535.92454,190.33259   L 535.92454,122.32095   M 535.92454,190.33259   L 535.92454,190.33259   L 535.92454,258.34424  "
     id="path31" />
  <path
     style="fill:#fefefe;fill-rule:nonzero;fill-opacity:1;stroke:none;"
     clip-path="url(#clipEmfPath1)"
     d="  M 493.42259,105.21802   L 493.42259,105.21802   L 578.42648,105.21802   L 578.42648,139.32386   L 493.42259,139.32386   L 493.42259,105.21802   z "
     id="path33" />
  <path
     style="fill:none;stroke:#00adee;stroke-width:1.200055px;stroke-linecap:butt;stroke-linejoin:miter;stroke-miterlimit:3;stroke-dasharray:none;stroke-opacity:1;"
     clip-path="url(#clipEmfPath1)"
     d="  M 493.42259,105.21802   L 493.42259,105.21802   L 578.42648,105.21802   L 578.42648,139.32386   L 493.42259,139.32386   L 493.42259,105.21802   z "
     id="path35" />
  <path
     style="fill:#fefefe;fill-rule:nonzero;fill-opacity:1;stroke:none;"
     clip-path="url(#clipEmfPath1)"
     d="  M 493.42259,241.34133   L 493.42259,241.34133   L 578.42648,241.34133   L 578.42648,275.34715   L 493.42259,275.34715   L 493.42259,241.34133   z "
     id="path37" />
  <path
     style="fill:none;stroke:#00adee;stroke-width:1.200055px;stroke-linecap:butt;stroke-linejoin:miter;stroke-miterlimit:3;stroke-dasharray:none;stroke-opacity:1;"
     clip-path="url(#clipEmfPath1)"
     d="  M 493.42259,241.34133   L 493.42259,241.34133   L 578.42648,241.34133   L 578.42648,275.34715   L 493.42259,275.34715   L 493.42259,241.34133   z "
     id="path39" />
  <path
     style="fill:#000000;fill-rule:nonzero;fill-opacity:1;stroke:none;"
     clip-path="url(#clipEmfPath1)"
     d="  M 510.32337,126.1216   L 510.32337,126.1216   C 511.82343,126.1216 511.92344,126.1216 512.32346,126.02158   C 513.42351,125.92156 514.82357,125.52149 515.5236,123.8212   C 515.72361,123.32112 515.82362,122.72102 515.82362,122.12091   C 515.82362,121.72084 515.82362,119.92054 514.42355,119.02038   C 513.52351,118.5203 512.42346,118.5203 511.22341,118.5203   L 509.62333,118.5203   L 509.52333,118.62031   C 509.62333,119.42045 509.62333,120.3206 509.62333,123.2211   C 509.62333,124.32129 509.62333,125.12143 509.62333,126.02158   L 509.62333,126.1216   L 510.32337,126.1216   z  M 510.82339,125.22144   L 510.82339,125.22144   C 510.82339,124.22127 510.82339,124.02124 510.82339,122.0209   C 510.82339,120.42062 510.82339,120.12057 510.82339,119.42045   C 511.22341,119.42045 511.52342,119.42045 511.82343,119.42045   C 512.32346,119.42045 513.12349,119.42045 513.72352,119.92054   C 514.52356,120.62066 514.52356,121.72084 514.52356,122.0209   C 514.52356,122.621 514.42355,123.12108 514.32355,123.62117   C 513.62352,125.22144 512.22345,125.22144 510.82339,125.22144   z "
     id="path41" />
  <path
     style="fill:#000000;fill-rule:nonzero;fill-opacity:1;stroke:none;"
     clip-path="url(#clipEmfPath1)"
     d="  M 521.12386,122.82103   L 521.12386,122.82103   C 521.12386,122.42096 521.12386,121.82086 521.02386,121.52081   C 520.82385,120.62066 520.12381,120.42062 519.32378,120.42062   C 518.62375,120.42062 518.02372,120.52064 517.42369,120.72067   L 517.42369,120.82069   C 517.42369,121.02072 517.42369,121.12074 517.32369,121.62083   L 517.42369,121.62083   C 517.92371,121.42079 518.32373,121.22076 519.02376,121.22076   C 519.62379,121.22076 519.8238,121.42079 519.92381,121.62083   C 520.02381,121.82086 520.02381,122.0209 520.02381,122.32095   L 519.8238,122.32095   C 517.92371,122.52098 516.72366,123.02107 516.72366,124.42131   C 516.72366,125.42148 517.5237,126.22161 518.52374,126.22161   C 519.32378,126.22161 519.8238,125.82155 520.02381,125.62151   L 520.02381,126.02158   L 520.12381,126.1216   C 520.52383,126.02158 520.62384,126.02158 521.12386,126.02158   L 521.22386,126.02158   C 521.12386,125.32146 521.12386,125.22144 521.12386,123.8212   L 521.12386,122.82103   z  M 520.02381,123.12108   L 520.02381,123.12108   L 520.02381,124.82138   C 519.92381,124.92139 519.52379,125.32146 518.92376,125.32146   C 517.92371,125.32146 517.92371,124.42131 517.92371,124.32129   C 517.92371,123.42114 518.92376,123.2211 519.92381,123.12108   L 520.02381,123.12108   z "
     id="path43" />
  <path
     style="fill:#000000;fill-rule:nonzero;fill-opacity:1;stroke:none;"
     clip-path="url(#clipEmfPath1)"
     d="  M 525.02404,125.12143   L 525.02404,125.12143   C 524.92403,125.22144 524.72403,125.22144 524.52402,125.22144   C 523.92399,125.22144 523.82398,125.02141 523.82398,124.22127   C 523.82398,124.12126 523.82398,123.52115 523.82398,123.32112   L 523.92399,121.42079   C 524.42401,121.42079 524.52402,121.42079 525.02404,121.42079   L 525.12404,121.32078   C 525.12404,121.02072 525.12404,120.82069 525.12404,120.62066   L 525.02404,120.52064   C 524.42401,120.52064 524.32401,120.52064 523.92399,120.52064   C 523.92399,119.82052 523.92399,119.62048 523.92399,118.92036   L 523.82398,118.92036   C 523.32396,119.02038 523.22396,119.02038 522.72393,119.22042   L 522.72393,119.22042   C 522.72393,119.42045 522.72393,119.62048 522.72393,119.82052   C 522.72393,120.12057 522.72393,120.3206 522.72393,120.52064   C 522.42392,120.52064 522.22391,120.52064 522.0239,120.52064   L 522.0239,120.62066   C 522.0239,120.92071 522.0239,121.02072 521.9239,121.32078   L 522.0239,121.42079   C 522.42392,121.42079 522.42392,121.42079 522.72393,121.42079   L 522.72393,123.72119   C 522.72393,125.02141 522.72393,125.22144 522.92394,125.52149   C 523.22396,126.1216 523.92399,126.1216 524.224,126.1216   C 524.62402,126.1216 524.72403,126.02158 525.02404,126.02158   L 525.02404,125.92156   C 525.02404,125.62151 525.02404,125.52149 525.02404,125.22144   L 525.02404,125.12143   z "
     id="path45" />
  <path
     style="fill:#000000;fill-rule:nonzero;fill-opacity:1;stroke:none;"
     clip-path="url(#clipEmfPath1)"
     d="  M 530.02427,122.82103   L 530.02427,122.82103   C 530.02427,122.42096 530.02427,121.82086 529.92426,121.52081   C 529.72425,120.62066 528.92422,120.42062 528.22419,120.42062   C 527.52415,120.42062 526.92413,120.52064 526.3241,120.72067   L 526.3241,120.82069   C 526.3241,121.02072 526.3241,121.12074 526.22409,121.62083   L 526.3241,121.62083   C 526.82412,121.42079 527.22414,121.22076 527.92417,121.22076   C 528.5242,121.22076 528.72421,121.42079 528.82421,121.62083   C 528.92422,121.82086 528.92422,122.0209 528.92422,122.32095   L 528.72421,122.32095   C 526.82412,122.52098 525.62407,123.02107 525.62407,124.42131   C 525.62407,125.42148 526.4241,126.22161 527.42415,126.22161   C 528.22419,126.22161 528.72421,125.82155 528.92422,125.62151   L 528.92422,126.02158   L 528.92422,126.1216   C 529.42424,126.02158 529.52424,126.02158 530.02427,126.02158   L 530.12427,126.02158   C 530.02427,125.32146 530.02427,125.22144 530.02427,123.8212   L 530.02427,122.82103   z  M 528.92422,123.12108   L 528.92422,123.12108   L 528.92422,124.82138   C 528.82421,124.92139 528.42419,125.32146 527.82417,125.32146   C 526.82412,125.32146 526.82412,124.42131 526.82412,124.32129   C 526.82412,123.42114 527.82417,123.2211 528.82421,123.12108   L 528.92422,123.12108   z "
     id="path47" />
  <path
     style="fill:#000000;fill-rule:nonzero;fill-opacity:1;stroke:none;"
     clip-path="url(#clipEmfPath1)"
     d="  M 535.92454,126.02158   L 535.92454,126.02158   C 535.92454,125.82155 535.92454,125.72153 535.92454,125.62151   C 535.92454,124.22127 535.82453,122.82103 535.82453,121.42079   C 536.32456,121.42079 536.42456,121.42079 536.82458,121.42079   L 536.92458,121.32078   C 536.92458,121.02072 536.92458,120.92071 536.92458,120.62066   L 536.92458,120.52064   C 536.82458,120.52064 535.82453,120.52064 535.82453,120.52064   L 535.82453,120.22059   C 535.82453,119.52047 535.82453,119.22042 536.02454,118.92036   C 536.12455,118.72033 536.42456,118.62031 536.62457,118.62031   C 536.72457,118.62031 536.82458,118.62031 536.92458,118.72033   L 537.02459,118.62031   C 537.02459,118.32026 537.02459,118.12023 537.02459,117.82018   L 537.02459,117.82018   C 536.92458,117.82018 536.82458,117.82018 536.62457,117.82018   C 536.32456,117.82018 535.0245,117.82018 534.72448,119.02038   C 534.72448,119.22042 534.72448,119.32043 534.72448,119.82052   L 534.72448,120.52064   C 534.62448,120.52064 534.42447,120.52064 534.02445,120.52064   L 534.02445,120.62066   C 534.02445,120.92071 534.02445,121.02072 533.92445,121.32078   L 534.02445,121.42079   C 534.22446,121.42079 534.52447,121.42079 534.72448,121.42079   C 534.72448,121.92088 534.72448,122.0209 534.72448,122.621   C 534.72448,123.72119 534.72448,124.92139 534.72448,126.02158   L 534.72448,126.1216   C 535.32451,126.02158 535.42452,126.02158 535.92454,126.02158   L 535.92454,126.02158   z "
     id="path49" />
  <path
     style="fill:#000000;fill-rule:nonzero;fill-opacity:1;stroke:none;"
     clip-path="url(#clipEmfPath1)"
     d="  M 542.12482,124.72136   L 542.12482,124.72136   C 541.92481,124.82138 541.7248,125.02141 541.32479,125.22144   C 541.02477,125.32146 540.72476,125.32146 540.42474,125.32146   C 540.02473,125.32146 539.4247,125.32146 539.02468,124.72136   C 538.62466,124.32129 538.62466,123.8212 538.62466,123.42114   C 540.32474,123.42114 540.62475,123.42114 542.32483,123.42114   L 542.42484,123.32112   C 542.42484,122.92105 542.42484,121.82086 541.82481,121.12074   C 541.52479,120.72067 540.92477,120.42062 540.02473,120.42062   C 538.72467,120.42062 537.52461,121.32078 537.52461,123.32112   C 537.52461,125.22144 538.62466,126.22161 540.32474,126.22161   C 541.22478,126.22161 541.82481,125.92156 542.02482,125.82155   L 542.12482,125.72153   C 542.12482,125.32146 542.12482,125.22144 542.12482,124.72136   L 542.12482,124.72136   z  M 541.32479,122.621   L 541.32479,122.621   C 540.32474,122.621 539.92472,122.621 538.62466,122.621   C 538.72467,121.52081 539.4247,121.12074 540.02473,121.12074   C 540.52475,121.12074 540.92477,121.42079 541.22478,122.0209   C 541.22478,122.22093 541.32479,122.42096 541.32479,122.621   z "
     id="path51" />
  <path
     style="fill:#000000;fill-rule:nonzero;fill-opacity:1;stroke:none;"
     clip-path="url(#clipEmfPath1)"
     d="  M 547.82508,124.72136   L 547.82508,124.72136   C 547.72508,124.82138 547.52507,125.02141 547.12505,125.22144   C 546.82504,125.32146 546.52502,125.32146 546.22501,125.32146   C 545.82499,125.32146 545.22496,125.32146 544.82495,124.72136   C 544.42493,124.32129 544.42493,123.8212 544.42493,123.42114   C 546.12501,123.42114 546.42502,123.42114 548.1251,123.42114   L 548.1251,123.32112   C 548.2251,122.92105 548.2251,121.82086 547.62507,121.12074   C 547.22506,120.72067 546.72503,120.42062 545.82499,120.42062   C 544.42493,120.42062 543.32488,121.32078 543.32488,123.32112   C 543.32488,125.22144 544.32492,126.22161 546.12501,126.22161   C 547.02505,126.22161 547.62507,125.92156 547.82508,125.82155   L 547.82508,125.72153   C 547.92509,125.32146 547.92509,125.22144 547.92509,124.72136   L 547.82508,124.72136   z  M 547.02505,122.621   L 547.02505,122.621   C 546.12501,122.621 545.72499,122.621 544.42493,122.621   C 544.52493,121.52081 545.22496,121.12074 545.82499,121.12074   C 546.32501,121.12074 546.72503,121.42079 546.92504,122.0209   C 547.02505,122.22093 547.02505,122.42096 547.02505,122.621   z "
     id="path53" />
  <path
     style="fill:#000000;fill-rule:nonzero;fill-opacity:1;stroke:none;"
     clip-path="url(#clipEmfPath1)"
     d="  M 552.82531,117.92019   L 552.82531,117.92019   C 552.92532,118.5203 552.92532,119.1204 552.92532,120.42062   C 552.6253,120.42062 552.5253,120.42062 552.32529,120.42062   C 551.72526,120.42062 550.72522,120.42062 550.02518,121.12074   C 549.52516,121.52081 549.02514,122.32095 549.02514,123.42114   C 549.02514,125.02141 550.02518,126.1216 551.42525,126.1216   C 552.22528,126.1216 552.6253,125.82155 552.92532,125.62151   L 552.92532,126.02158   L 552.92532,126.1216   C 553.42534,126.02158 553.52534,126.02158 554.02537,126.02158   L 554.12537,126.02158   C 554.02537,125.22144 554.02537,124.42131 554.02537,122.82103   C 554.02537,121.72084 554.02537,119.1204 554.12537,117.62014   L 554.02537,117.62014   C 553.52534,117.72016 553.42534,117.72016 552.92532,117.82018   L 552.82531,117.92019   z  M 552.92532,124.72136   L 552.92532,124.72136   C 552.72531,124.92139 552.32529,125.22144 551.72526,125.22144   C 551.12523,125.22144 550.82522,124.92139 550.62521,124.72136   C 550.4252,124.52132 550.22519,124.02124 550.22519,123.42114   C 550.22519,122.52098 550.62521,122.0209 550.82522,121.72084   C 551.32524,121.32078 552.02528,121.22076 552.32529,121.22076   C 552.6253,121.22076 552.72531,121.32078 552.92532,121.32078   C 552.92532,123.02107 552.92532,123.32112 552.92532,124.72136   z "
     id="path55" />
  <path
     style="fill:#000000;fill-rule:nonzero;fill-opacity:1;stroke:none;"
     clip-path="url(#clipEmfPath1)"
     d="  M 558.62558,118.92036   L 558.62558,118.92036   C 558.62558,119.22042 558.62558,119.32043 558.62558,119.7205   L 558.72558,119.7205   C 559.82563,119.7205 560.32566,119.7205 561.52571,119.7205   C 561.02569,120.52064 559.92564,122.0209 559.52562,122.52098   L 559.62562,122.52098   C 559.82563,122.52098 560.02564,122.42096 560.42566,122.42096   C 560.72567,122.42096 561.3257,122.42096 561.72572,122.82103   C 562.02573,123.02107 562.22574,123.42114 562.22574,123.8212   C 562.22574,124.72136 561.52571,125.32146 560.42566,125.32146   C 559.42561,125.32146 558.82559,124.92139 558.62558,124.72136   L 558.52557,124.72136   C 558.52557,125.12143 558.52557,125.22144 558.52557,125.62151   L 558.52557,125.72153   C 559.1256,126.02158 559.72563,126.1216 560.42566,126.1216   C 561.62571,126.1216 562.62576,125.72153 563.12578,124.72136   C 563.32579,124.42131 563.4258,124.12126 563.4258,123.8212   C 563.4258,123.02107 562.92577,121.72084 561.3257,121.72084   C 561.52571,121.22076 562.92577,119.32043 563.22579,118.92036   L 563.12578,118.82035   C 562.82577,118.82035 562.52576,118.82035 561.82572,118.82035   L 558.72558,118.82035   L 558.62558,118.92036   z "
     id="path57" />
  <path
     style="fill:#fefefe;fill-rule:nonzero;fill-opacity:1;stroke:none;"
     clip-path="url(#clipEmfPath1)"
     d="  M 612.52805,173.32968   L 612.52805,173.32968   L 697.53194,173.32968   L 697.53194,207.33551   L 612.52805,207.33551   L 612.52805,173.32968   z "
     id="path59" />
  <path
     style="fill:none;stroke:#00adee;stroke-width:1.200055px;stroke-linecap:butt;stroke-linejoin:miter;stroke-miterlimit:3;stroke-dasharray:none;stroke-opacity:1;"
     clip-path="url(#clipEmfPath1)"
     d="  M 612.52805,173.32968   L 612.52805,173.32968   L 697.53194,173.32968   L 697.53194,207.33551   L 612.52805,207.33551   L 612.52805,173.32968   z "
     id="path61" />
  <path
     style="fill:#fefefe;fill-rule:nonzero;fill-opacity:1;stroke:none;"
     clip-path="url(#clipEmfPath1)"
     d="  M 374.31714,173.32968   L 374.31714,173.32968   L 459.42104,173.32968   L 459.42104,207.33551   L 374.31714,207.33551   L 374.31714,173.32968   z "
     id="path63" />
  <path
     style="fill:none;stroke:#00adee;stroke-width:1.200055px;stroke-linecap:butt;stroke-linejoin:miter;stroke-miterlimit:3;stroke-dasharray:none;stroke-opacity:1;"
     clip-path="url(#clipEmfPath1)"
     d="  M 374.31714,173.32968   L 374.31714,173.32968   L 459.42104,173.32968   L 459.42104,207.33551   L 374.31714,207.33551   L 374.31714,173.32968   z "
     id="path65" />
  <path
     style="fill:#000000;fill-rule:nonzero;fill-opacity:1;stroke:none;"
     clip-path="url(#clipEmfPath1)"
     d="  M 509.82334,258.34424   L 509.82334,258.34424   C 511.22341,258.34424 511.42342,258.34424 511.82343,258.34424   C 512.92348,258.24422 514.32355,257.84415 514.92358,256.14386   C 515.22359,255.64378 515.22359,255.04368 515.22359,254.44357   C 515.22359,253.94349 515.22359,252.2432 513.82353,251.34304   C 513.02349,250.84296 511.92344,250.84296 510.62338,250.84296   L 509.12331,250.84296   L 509.02331,250.94297   C 509.12331,251.74311 509.12331,252.64326 509.12331,255.54376   C 509.12331,256.64395 509.12331,257.44409 509.12331,258.34424   L 509.12331,258.34424   L 509.82334,258.34424   z  M 510.32337,257.44409   L 510.32337,257.44409   C 510.32337,256.54393 510.32337,256.24388 510.32337,254.34356   C 510.32337,252.74328 510.32337,252.34321 510.32337,251.74311   C 510.72338,251.74311 511.0234,251.64309 511.32341,251.64309   C 511.72343,251.64309 512.62347,251.64309 513.2235,252.2432   C 514.02354,252.8433 514.02354,253.94349 514.02354,254.34356   C 514.02354,254.94366 513.92353,255.44374 513.72352,255.94383   C 513.12349,257.5441 511.72343,257.5441 510.32337,257.44409   z "
     id="path67" />
  <path
     style="fill:#000000;fill-rule:nonzero;fill-opacity:1;stroke:none;"
     clip-path="url(#clipEmfPath1)"
     d="  M 520.62384,255.14369   L 520.62384,255.14369   C 520.62384,254.64361 520.62384,254.14352 520.52383,253.84347   C 520.32382,252.94332 519.52379,252.74328 518.82376,252.74328   C 518.12372,252.74328 517.5237,252.8433 516.92367,253.04333   L 516.92367,253.14335   C 516.82366,253.34338 516.82366,253.4434 516.82366,253.94349   L 516.92367,253.94349   C 517.42369,253.74345 517.82371,253.54342 518.52374,253.54342   C 519.02376,253.54342 519.32378,253.74345 519.42378,253.94349   C 519.52379,254.14352 519.52379,254.34356 519.52379,254.64361   L 519.32378,254.64361   C 517.42369,254.84364 516.22364,255.24371 516.22364,256.74397   C 516.22364,257.74414 517.02367,258.44426 518.02372,258.44426   C 518.82376,258.44426 519.32378,258.14421 519.52379,257.94417   L 519.52379,258.34424   L 519.52379,258.34424   C 520.02381,258.34424 520.12381,258.34424 520.62384,258.34424   L 520.72384,258.24422   C 520.62384,257.64412 520.62384,257.44409 520.62384,256.14386   L 520.62384,255.14369   z  M 519.52379,255.34373   L 519.52379,255.34373   L 519.52379,257.14403   C 519.42378,257.24405 519.02376,257.64412 518.32373,257.64412   C 517.32369,257.64412 517.32369,256.74397 517.32369,256.64395   C 517.32369,255.74379 518.32373,255.54376 519.42378,255.44374   L 519.52379,255.34373   z "
     id="path69" />
  <path
     style="fill:#000000;fill-rule:nonzero;fill-opacity:1;stroke:none;"
     clip-path="url(#clipEmfPath1)"
     d="  M 524.52402,257.44409   L 524.52402,257.44409   C 524.32401,257.5441 524.224,257.5441 523.92399,257.5441   C 523.42397,257.5441 523.32396,257.34407 523.32396,256.54393   C 523.32396,256.3439 523.32396,255.74379 523.32396,255.64378   L 523.32396,253.64344   C 523.92399,253.64344 524.02399,253.64344 524.52402,253.74345   L 524.52402,253.64344   C 524.52402,253.24337 524.62402,253.14335 524.62402,252.8433   L 524.52402,252.8433   C 523.92399,252.8433 523.82398,252.8433 523.32396,252.8433   C 523.32396,252.04316 523.42397,251.94314 523.42397,251.24302   L 523.32396,251.14301   C 522.82394,251.34304 522.72393,251.34304 522.22391,251.44306   L 522.22391,251.54308   C 522.22391,251.74311 522.22391,251.94314 522.22391,252.14318   C 522.22391,252.34321 522.22391,252.64326 522.22391,252.8433   C 521.9239,252.8433 521.72389,252.8433 521.52388,252.8433   L 521.42387,252.94332   C 521.42387,253.24337 521.42387,253.34338 521.42387,253.64344   L 521.52388,253.74345   C 521.82389,253.74345 521.82389,253.74345 522.22391,253.74345   L 522.22391,256.04385   C 522.22391,257.34407 522.22391,257.5441 522.42392,257.84415   C 522.72393,258.44426 523.42397,258.44426 523.62397,258.44426   C 524.02399,258.44426 524.224,258.34424 524.42401,258.34424   L 524.52402,258.24422   C 524.52402,257.94417 524.52402,257.84415 524.52402,257.5441   L 524.52402,257.44409   z "
     id="path71" />
  <path
     style="fill:#000000;fill-rule:nonzero;fill-opacity:1;stroke:none;"
     clip-path="url(#clipEmfPath1)"
     d="  M 529.52424,255.14369   L 529.52424,255.14369   C 529.52424,254.64361 529.52424,254.14352 529.42424,253.84347   C 529.22423,252.94332 528.42419,252.74328 527.62416,252.74328   C 527.02413,252.74328 526.4241,252.8433 525.82408,253.04333   L 525.72407,253.14335   C 525.72407,253.34338 525.72407,253.4434 525.72407,253.94349   L 525.82408,253.94349   C 526.22409,253.74345 526.72412,253.54342 527.42415,253.54342   C 527.92417,253.54342 528.22419,253.74345 528.32419,253.94349   C 528.42419,254.14352 528.42419,254.34356 528.42419,254.64361   L 528.22419,254.64361   C 526.3241,254.84364 525.12404,255.24371 525.12404,256.74397   C 525.12404,257.74414 525.92408,258.44426 526.92413,258.44426   C 527.72416,258.44426 528.22419,258.14421 528.42419,257.94417   L 528.42419,258.34424   L 528.42419,258.34424   C 528.92422,258.34424 529.02422,258.34424 529.52424,258.34424   L 529.62425,258.24422   C 529.52424,257.64412 529.52424,257.44409 529.52424,256.14386   L 529.52424,255.14369   z  M 528.42419,255.34373   L 528.42419,255.34373   L 528.42419,257.14403   C 528.32419,257.24405 527.92417,257.64412 527.22414,257.64412   C 526.22409,257.64412 526.22409,256.74397 526.22409,256.64395   C 526.22409,255.74379 527.22414,255.54376 528.32419,255.44374   L 528.42419,255.34373   z "
     id="path73" />
  <path
     style="fill:#000000;fill-rule:nonzero;fill-opacity:1;stroke:none;"
     clip-path="url(#clipEmfPath1)"
     d="  M 535.42452,258.24422   L 535.42452,258.24422   C 535.42452,258.14421 535.42452,258.04419 535.42452,257.94417   C 535.32451,256.54393 535.32451,255.14369 535.32451,253.74345   C 535.72453,253.74345 535.82453,253.74345 536.32456,253.74345   L 536.42456,253.64344   C 536.42456,253.34338 536.42456,253.24337 536.42456,252.94332   L 536.32456,252.8433   C 536.22455,252.8433 535.32451,252.8433 535.32451,252.8433   L 535.32451,252.54325   C 535.32451,251.84313 535.32451,251.54308 535.52452,251.24302   C 535.62452,250.94297 535.92454,250.94297 536.12455,250.94297   C 536.22455,250.94297 536.32456,250.94297 536.42456,250.94297   L 536.52457,250.94297   C 536.52457,250.64292 536.52457,250.44289 536.52457,250.14284   L 536.52457,250.14284   C 536.32456,250.04282 536.22455,250.04282 536.12455,250.04282   C 535.82453,250.04282 534.52447,250.04282 534.22446,251.34304   C 534.22446,251.54308 534.22446,251.64309 534.22446,252.14318   L 534.22446,252.8433   C 534.02445,252.8433 533.82444,252.8433 533.52443,252.8433   L 533.52443,252.94332   C 533.42442,253.24337 533.42442,253.34338 533.42442,253.64344   L 533.52443,253.74345   C 533.72444,253.74345 534.02445,253.74345 534.22446,253.74345   C 534.22446,254.14352 534.22446,254.34356 534.22446,254.94366   C 534.22446,256.04385 534.22446,257.24405 534.22446,258.34424   L 534.22446,258.34424   C 534.82449,258.34424 534.92449,258.34424 535.42452,258.34424   L 535.42452,258.24422   z "
     id="path75" />
  <path
     style="fill:#000000;fill-rule:nonzero;fill-opacity:1;stroke:none;"
     clip-path="url(#clipEmfPath1)"
     d="  M 541.52479,257.04402   L 541.52479,257.04402   C 541.42479,257.14403 541.22478,257.34407 540.82476,257.44409   C 540.52475,257.5441 540.22473,257.64412 539.92472,257.64412   C 539.5247,257.64412 538.92468,257.5441 538.52466,257.04402   C 538.12464,256.64395 538.12464,256.14386 538.12464,255.74379   C 539.82472,255.74379 540.12473,255.74379 541.82481,255.74379   L 541.82481,255.64378   C 541.92481,255.24371 541.92481,254.14352 541.32479,253.4434   C 540.92477,253.04333 540.42474,252.74328 539.5247,252.74328   C 538.12464,252.74328 537.02459,253.64344 537.02459,255.64378   C 537.02459,257.44409 538.02463,258.44426 539.82472,258.44426   C 540.72476,258.44426 541.32479,258.14421 541.52479,258.04419   L 541.52479,258.04419   C 541.6248,257.64412 541.6248,257.44409 541.6248,257.04402   L 541.52479,257.04402   z  M 540.72476,254.94366   L 540.72476,254.94366   C 539.82472,254.94366 539.4247,254.94366 538.12464,254.94366   C 538.22464,253.84347 538.92468,253.4434 539.5247,253.4434   C 540.02473,253.4434 540.42474,253.74345 540.62475,254.34356   C 540.72476,254.54359 540.72476,254.74362 540.72476,254.94366   z "
     id="path77" />
  <path
     style="fill:#000000;fill-rule:nonzero;fill-opacity:1;stroke:none;"
     clip-path="url(#clipEmfPath1)"
     d="  M 547.32506,257.04402   L 547.32506,257.04402   C 547.22506,257.14403 547.02505,257.34407 546.62503,257.44409   C 546.32501,257.5441 545.925,257.64412 545.62498,257.64412   C 545.32497,257.64412 544.72494,257.5441 544.32492,257.04402   C 543.9249,256.64395 543.9249,256.14386 543.9249,255.74379   C 545.62498,255.74379 545.925,255.74379 547.52507,255.74379   L 547.62507,255.64378   C 547.62507,255.24371 547.72508,254.14352 547.02505,253.4434   C 546.72503,253.04333 546.12501,252.74328 545.32497,252.74328   C 543.9249,252.74328 542.72485,253.64344 542.72485,255.64378   C 542.72485,257.44409 543.8249,258.44426 545.62498,258.44426   C 546.52502,258.44426 547.12505,258.14421 547.32506,258.04419   L 547.32506,258.04419   C 547.32506,257.64412 547.42506,257.44409 547.42506,257.04402   L 547.32506,257.04402   z  M 546.52502,254.94366   L 546.52502,254.94366   C 545.62498,254.94366 545.22496,254.94366 543.9249,254.94366   C 544.02491,253.84347 544.72494,253.4434 545.32497,253.4434   C 545.72499,253.4434 546.22501,253.74345 546.42502,254.34356   C 546.52502,254.54359 546.52502,254.74362 546.52502,254.94366   z "
     id="path79" />
  <path
     style="fill:#000000;fill-rule:nonzero;fill-opacity:1;stroke:none;"
     clip-path="url(#clipEmfPath1)"
     d="  M 552.32529,250.14284   L 552.32529,250.14284   C 552.32529,250.84296 552.42529,251.44306 552.42529,252.74328   C 552.12528,252.74328 552.02528,252.74328 551.82527,252.74328   C 551.22524,252.74328 550.22519,252.74328 549.42516,253.4434   C 549.02514,253.84347 548.52511,254.54359 548.52511,255.74379   C 548.52511,257.34407 549.52516,258.44426 550.92522,258.44426   C 551.72526,258.44426 552.12528,258.14421 552.42529,257.94417   L 552.32529,258.34424   L 552.42529,258.34424   C 552.92532,258.34424 553.02532,258.34424 553.52534,258.34424   L 553.52534,258.24422   C 553.52534,257.5441 553.52534,256.74397 553.52534,255.14369   C 553.52534,254.0435 553.52534,251.44306 553.52534,249.9428   L 553.52534,249.9428   C 553.02532,250.04282 552.92532,250.04282 552.32529,250.14284   L 552.32529,250.14284   z  M 552.32529,257.04402   L 552.32529,257.04402   C 552.22528,257.14403 551.82527,257.5441 551.22524,257.5441   C 550.62521,257.5441 550.3252,257.24405 550.12519,257.04402   C 549.82517,256.74397 549.72517,256.3439 549.72517,255.74379   C 549.72517,254.84364 550.12519,254.34356 550.3252,254.0435   C 550.82522,253.64344 551.52525,253.54342 551.82527,253.54342   C 552.02528,253.54342 552.22528,253.64344 552.42529,253.64344   C 552.42529,255.34373 552.42529,255.64378 552.32529,257.04402   z "
     id="path81" />
  <path
     style="fill:#000000;fill-rule:nonzero;fill-opacity:1;stroke:none;"
     clip-path="url(#clipEmfPath1)"
     d="  M 561.3257,258.24422   L 561.3257,258.24422   C 561.2257,257.44409 561.2257,256.84398 561.2257,255.14369   C 561.2257,252.34321 561.2257,251.64309 561.3257,251.14301   L 561.2257,251.04299   C 560.32566,251.24302 559.92564,251.24302 559.0256,251.34304   L 559.0256,251.44306   C 559.0256,251.74311 559.0256,251.84313 558.92559,252.14318   L 559.0256,252.2432   C 559.42561,252.14318 559.62562,252.14318 560.12565,252.04316   C 560.12565,252.64326 560.12565,253.4434 560.12565,254.24354   C 560.02564,256.24388 560.02564,256.64395 560.02564,258.34424   L 560.12565,258.34424   C 560.62567,258.34424 560.72567,258.34424 561.2257,258.34424   L 561.3257,258.24422   z "
     id="path83" />
  <path
     style="fill:#000000;fill-rule:nonzero;fill-opacity:1;stroke:none;"
     clip-path="url(#clipEmfPath1)"
     d="  M 628.9288,193.13307   L 628.9288,193.13307   C 630.32886,193.13307 630.42887,193.13307 630.92889,193.03306   C 631.92893,192.93304 633.329,192.63299 634.02903,190.9327   C 634.22904,190.33259 634.32904,189.73249 634.32904,189.13239   C 634.32904,188.73232 634.32904,187.03203 632.92898,186.13187   C 632.02894,185.53177 630.92889,185.53177 629.72883,185.53177   L 628.12876,185.63179   L 628.12876,185.63179   C 628.12876,186.43193 628.12876,187.33208 628.12876,190.33259   C 628.12876,191.43278 628.12876,192.23292 628.12876,193.03306   L 628.22876,193.13307   L 628.9288,193.13307   z  M 629.32881,192.23292   L 629.32881,192.23292   C 629.32881,191.23275 629.32881,191.03271 629.32881,189.13239   C 629.32881,187.53211 629.32881,187.13205 629.32881,186.43193   C 629.72883,186.43193 630.02885,186.43193 630.42887,186.43193   C 630.82888,186.43193 631.62892,186.43193 632.32895,186.93201   C 633.02898,187.63213 633.02898,188.73232 633.02898,189.03237   C 633.02898,189.63247 633.02898,190.13256 632.82897,190.63264   C 632.12894,192.23292 630.82888,192.23292 629.32881,192.23292   z "
     id="path85" />
  <path
     style="fill:#000000;fill-rule:nonzero;fill-opacity:1;stroke:none;"
     clip-path="url(#clipEmfPath1)"
     d="  M 639.62929,189.83251   L 639.62929,189.83251   C 639.62929,189.43244 639.62929,188.83234 639.62929,188.53229   C 639.32927,187.73215 638.62924,187.4321 637.8292,187.4321   C 637.22918,187.4321 636.52914,187.53211 636.02912,187.83217   L 635.92912,187.83217   C 635.92912,188.0322 635.92912,188.13222 635.92912,188.6323   L 635.92912,188.6323   C 636.42914,188.53229 636.92916,188.23223 637.62919,188.23223   C 638.12922,188.23223 638.32923,188.43227 638.42923,188.6323   C 638.52924,188.83234 638.52924,189.03237 638.52924,189.33242   L 638.42923,189.33242   C 636.42914,189.53246 635.32909,190.03254 635.32909,191.43278   C 635.32909,192.53297 636.02912,193.23309 637.12917,193.23309   C 637.92921,193.23309 638.32923,192.83302 638.52924,192.63299   L 638.52924,193.03306   L 638.62924,193.13307   C 639.12926,193.13307 639.12926,193.13307 639.62929,193.03306   L 639.72929,193.03306   C 639.62929,192.33294 639.62929,192.23292 639.62929,190.9327   L 639.62929,189.83251   z  M 638.52924,190.13256   L 638.52924,190.13256   L 638.52924,191.83285   C 638.42923,192.03288 638.02921,192.33294 637.42919,192.33294   C 636.42914,192.33294 636.42914,191.43278 636.42914,191.43278   C 636.42914,190.43261 637.42919,190.33259 638.42923,190.13256   L 638.52924,190.13256   z "
     id="path87" />
  <path
     style="fill:#000000;fill-rule:nonzero;fill-opacity:1;stroke:none;"
     clip-path="url(#clipEmfPath1)"
     d="  M 643.52946,192.23292   L 643.52946,192.23292   C 643.42946,192.23292 643.22945,192.33294 643.02944,192.33294   C 642.52942,192.33294 642.42941,192.03288 642.42941,191.23275   C 642.42941,191.13273 642.42941,190.53263 642.32941,190.43261   L 642.42941,188.43227   C 642.92944,188.43227 643.02944,188.43227 643.52946,188.43227   L 643.62947,188.33225   C 643.62947,188.0322 643.62947,187.93218 643.62947,187.63213   L 643.62947,187.53211   C 643.02944,187.53211 642.82943,187.53211 642.42941,187.63213   C 642.42941,186.83199 642.42941,186.63196 642.42941,185.93184   L 642.32941,185.93184   C 641.92939,186.03186 641.72938,186.13187 641.32936,186.23189   L 641.22936,186.33191   C 641.22936,186.53194 641.22936,186.73198 641.22936,186.93201   C 641.22936,187.13205 641.22936,187.33208 641.32936,187.53211   C 640.92935,187.63213 640.82934,187.53211 640.52933,187.53211   L 640.52933,187.63213   C 640.52933,187.93218 640.52933,188.0322 640.52933,188.43227   L 640.52933,188.43227   C 640.92935,188.43227 640.92935,188.43227 641.32936,188.43227   L 641.22936,190.73266   C 641.22936,192.03288 641.22936,192.33294 641.42937,192.63299   C 641.82939,193.13307 642.42941,193.13307 642.72943,193.13307   C 643.12945,193.13307 643.32946,193.13307 643.52946,193.03306   L 643.52946,193.03306   C 643.52946,192.63299 643.52946,192.63299 643.62947,192.23292   L 643.52946,192.23292   z "
     id="path89" />
  <path
     style="fill:#000000;fill-rule:nonzero;fill-opacity:1;stroke:none;"
     clip-path="url(#clipEmfPath1)"
     d="  M 648.52969,189.83251   L 648.52969,189.83251   C 648.52969,189.43244 648.52969,188.83234 648.52969,188.53229   C 648.22968,187.73215 647.52965,187.4321 646.72961,187.4321   C 646.12958,187.4321 645.42955,187.53211 644.92953,187.83217   L 644.82952,187.83217   C 644.82952,188.0322 644.82952,188.13222 644.82952,188.6323   L 644.82952,188.6323   C 645.32955,188.53229 645.82957,188.23223 646.5296,188.23223   C 647.02963,188.23223 647.22963,188.43227 647.32964,188.6323   C 647.42964,188.83234 647.42964,189.03237 647.42964,189.33242   L 647.22963,189.33242   C 645.32955,189.53246 644.2295,190.03254 644.2295,191.43278   C 644.2295,192.53297 644.92953,193.23309 646.02958,193.23309   C 646.82962,193.23309 647.22963,192.83302 647.42964,192.63299   L 647.42964,193.03306   L 647.52965,193.13307   C 648.02967,193.13307 648.02967,193.13307 648.52969,193.03306   L 648.6297,193.03306   C 648.52969,192.33294 648.52969,192.23292 648.52969,190.9327   L 648.52969,189.83251   z  M 647.42964,190.13256   L 647.42964,190.13256   L 647.42964,191.83285   C 647.32964,192.03288 646.92962,192.33294 646.32959,192.33294   C 645.32955,192.33294 645.32955,191.43278 645.32955,191.43278   C 645.32955,190.43261 646.32959,190.33259 647.32964,190.13256   L 647.42964,190.13256   z "
     id="path91" />
  <path
     style="fill:#000000;fill-rule:nonzero;fill-opacity:1;stroke:none;"
     clip-path="url(#clipEmfPath1)"
     d="  M 654.52997,193.03306   L 654.52997,193.03306   C 654.52997,192.93304 654.42996,192.733 654.42996,192.63299   C 654.42996,191.23275 654.42996,189.83251 654.42996,188.43227   C 654.82998,188.43227 654.92999,188.43227 655.33001,188.43227   L 655.43001,188.43227   C 655.43001,188.0322 655.43001,187.93218 655.43001,187.63213   L 655.43001,187.53211   C 655.33001,187.53211 654.42996,187.63213 654.32996,187.63213   L 654.32996,187.23206   C 654.32996,186.53194 654.32996,186.23189 654.52997,186.03186   C 654.72998,185.73181 654.92999,185.63179 655.13,185.63179   C 655.33001,185.63179 655.33001,185.73181 655.43001,185.73181   L 655.53001,185.63179   C 655.53001,185.33174 655.53001,185.23172 655.63002,184.93167   L 655.53001,184.83165   C 655.43001,184.83165 655.33001,184.83165 655.13,184.83165   C 654.82998,184.83165 653.52992,184.83165 653.32991,186.03186   C 653.22991,186.23189 653.22991,186.33191 653.22991,186.93201   L 653.22991,187.63213   C 653.1299,187.63213 652.9299,187.53211 652.62988,187.53211   L 652.52988,187.63213   C 652.52988,188.0322 652.52988,188.13222 652.52988,188.43227   L 652.52988,188.43227   C 652.72989,188.43227 653.0299,188.43227 653.32991,188.43227   C 653.32991,188.93235 653.32991,189.13239 653.32991,189.63247   C 653.32991,190.83268 653.32991,191.93287 653.22991,193.03306   L 653.32991,193.13307   C 653.82994,193.13307 653.92994,193.13307 654.42996,193.13307   L 654.52997,193.03306   z "
     id="path93" />
  <path
     style="fill:#000000;fill-rule:nonzero;fill-opacity:1;stroke:none;"
     clip-path="url(#clipEmfPath1)"
     d="  M 660.63025,191.73283   L 660.63025,191.73283   C 660.43024,191.83285 660.23023,192.03288 659.83021,192.23292   C 659.5302,192.33294 659.23018,192.33294 658.93017,192.33294   C 658.63016,192.33294 658.03013,192.33294 657.53011,191.83285   C 657.23009,191.33276 657.13009,190.83268 657.13009,190.43261   C 658.93017,190.43261 659.13018,190.43261 660.83026,190.43261   L 660.93026,190.43261   C 660.93026,189.93253 660.93026,188.93235 660.33023,188.13222   C 660.03022,187.83217 659.43019,187.4321 658.63016,187.4321   C 657.23009,187.4321 656.03004,188.43227 656.03004,190.33259   C 656.03004,192.23292 657.13009,193.23309 658.83017,193.23309   C 659.83021,193.23309 660.33023,192.93304 660.53024,192.83302   L 660.63025,192.733   C 660.63025,192.33294 660.63025,192.23292 660.73025,191.83285   L 660.63025,191.73283   z  M 659.83021,189.63247   L 659.83021,189.63247   C 658.83017,189.63247 658.43015,189.63247 657.13009,189.63247   C 657.23009,188.6323 657.93012,188.23223 658.53015,188.23223   C 659.03017,188.23223 659.5302,188.43227 659.73021,189.03237   C 659.83021,189.23241 659.83021,189.53246 659.83021,189.63247   z "
     id="path95" />
  <path
     style="fill:#000000;fill-rule:nonzero;fill-opacity:1;stroke:none;"
     clip-path="url(#clipEmfPath1)"
     d="  M 666.43051,191.73283   L 666.43051,191.73283   C 666.2305,191.83285 666.0305,192.03288 665.63048,192.23292   C 665.33046,192.33294 665.03045,192.33294 664.73044,192.33294   C 664.33042,192.33294 663.73039,192.33294 663.33037,191.83285   C 663.03036,191.33276 662.93035,190.83268 662.93035,190.43261   C 664.63043,190.43261 664.93044,190.43261 666.63052,190.43261   L 666.73053,190.43261   C 666.73053,189.93253 666.73053,188.93235 666.1305,188.13222   C 665.83049,187.83217 665.23046,187.4321 664.33042,187.4321   C 663.03036,187.4321 661.8303,188.43227 661.8303,190.33259   C 661.8303,192.23292 662.93035,193.23309 664.63043,193.23309   C 665.53047,193.23309 666.1305,192.93304 666.33051,192.83302   L 666.43051,192.733   C 666.43051,192.33294 666.43051,192.23292 666.43051,191.83285   L 666.43051,191.73283   z  M 665.63048,189.63247   L 665.63048,189.63247   C 664.63043,189.63247 664.23041,189.63247 662.93035,189.63247   C 663.03036,188.6323 663.73039,188.23223 664.33042,188.23223   C 664.83044,188.23223 665.33046,188.43227 665.53047,189.03237   C 665.53047,189.23241 665.63048,189.53246 665.63048,189.63247   z "
     id="path97" />
  <path
     style="fill:#000000;fill-rule:nonzero;fill-opacity:1;stroke:none;"
     clip-path="url(#clipEmfPath1)"
     d="  M 671.33074,184.93167   L 671.33074,184.93167   C 671.43074,185.53177 671.43074,186.13187 671.43074,187.4321   C 671.13073,187.4321 671.03072,187.4321 670.83071,187.4321   C 670.33069,187.4321 669.33065,187.53211 668.53061,188.23223   C 668.03059,188.6323 667.53056,189.33242 667.53056,190.43261   C 667.53056,192.1329 668.53061,193.23309 669.93067,193.23309   C 670.73071,193.23309 671.13073,192.83302 671.43074,192.63299   L 671.43074,193.03306   L 671.43074,193.13307   C 671.93077,193.13307 672.13077,193.13307 672.53079,193.13307   L 672.6308,193.03306   C 672.53079,192.33294 672.53079,191.5328 672.53079,189.83251   C 672.53079,188.83234 672.53079,186.13187 672.6308,184.73163   L 672.53079,184.63162   C 672.03077,184.73163 671.93077,184.73163 671.43074,184.83165   L 671.33074,184.93167   z  M 671.43074,191.83285   L 671.43074,191.83285   C 671.23073,191.93287 670.83071,192.23292 670.23069,192.23292   C 669.63066,192.23292 669.33065,192.03288 669.13064,191.73283   C 668.93063,191.5328 668.73062,191.03271 668.73062,190.43261   C 668.73062,189.53246 669.13064,189.03237 669.33065,188.83234   C 669.83067,188.33225 670.5307,188.33225 670.93072,188.33225   C 671.13073,188.33225 671.23073,188.33225 671.43074,188.33225   C 671.43074,190.03254 671.43074,190.43261 671.43074,191.83285   z "
     id="path99" />
  <path
     style="fill:#000000;fill-rule:nonzero;fill-opacity:1;stroke:none;"
     clip-path="url(#clipEmfPath1)"
     d="  M 682.23124,191.13273   L 682.23124,191.13273   C 682.23124,190.83268 682.23124,190.73266 682.23124,190.43261   L 682.23124,190.33259   C 681.73121,190.33259 681.73121,190.33259 681.23119,190.33259   L 681.23119,189.63247   C 681.23119,187.63213 681.23119,187.4321 681.23119,185.93184   L 681.23119,185.83182   C 680.53116,185.93184 680.43115,185.93184 679.63112,185.93184   L 679.63112,185.93184   C 678.83108,187.33208 677.43102,189.43244 676.83099,190.33259   L 676.83099,190.43261   C 676.73099,190.83268 676.73099,190.83268 676.73099,191.13273   L 676.83099,191.23275   C 677.23101,191.23275 677.83104,191.23275 680.13114,191.23275   C 680.13114,191.93287 680.13114,192.1329 680.13114,193.03306   L 680.23115,193.13307   C 680.63116,193.13307 680.73117,193.13307 681.23119,193.13307   L 681.23119,193.03306   C 681.23119,192.23292 681.23119,192.03288 681.23119,191.23275   C 681.63121,191.23275 681.83122,191.23275 682.13123,191.23275   L 682.23124,191.13273   z  M 677.83104,190.33259   L 677.83104,190.33259   L 680.23115,186.53194   L 680.23115,190.33259   L 677.83104,190.33259   z "
     id="path101" />
  <path
     style="fill:#000000;fill-rule:nonzero;fill-opacity:1;stroke:none;"
     clip-path="url(#clipEmfPath1)"
     d="  M 389.41783,192.23292   L 389.41783,192.23292   C 390.81789,192.23292 391.0179,192.23292 391.41792,192.23292   C 392.51797,192.03288 393.91804,191.73283 394.51806,190.03254   C 394.71807,189.43244 394.81808,188.83234 394.81808,188.23223   C 394.81808,187.83217 394.81808,186.13187 393.41801,185.23172   C 392.51797,184.63162 391.41792,184.63162 390.21787,184.73163   L 388.61779,184.73163   L 388.61779,184.83165   C 388.61779,185.63179 388.7178,186.43193 388.7178,189.43244   C 388.7178,190.53263 388.7178,191.33276 388.61779,192.1329   L 388.7178,192.23292   L 389.41783,192.23292   z  M 389.91785,191.33276   L 389.91785,191.33276   C 389.81785,190.33259 389.81785,190.13256 389.81785,188.23223   C 389.81785,186.63196 389.81785,186.23189 389.91785,185.53177   C 390.21787,185.53177 390.51788,185.53177 390.9179,185.53177   C 391.31792,185.53177 392.21796,185.53177 392.81799,186.03186   C 393.61802,186.73198 393.61802,187.83217 393.61802,188.23223   C 393.61802,188.73232 393.51802,189.33242 393.31801,189.73249   C 392.71798,191.33276 391.31792,191.33276 389.91785,191.33276   z "
     id="path103" />
  <path
     style="fill:#000000;fill-rule:nonzero;fill-opacity:1;stroke:none;"
     clip-path="url(#clipEmfPath1)"
     d="  M 400.21832,188.93235   L 400.21832,188.93235   C 400.21832,188.53229 400.21832,187.93218 400.11832,187.63213   C 399.91831,186.83199 399.11827,186.53194 398.31824,186.53194   C 397.71821,186.53194 397.11818,186.73198 396.51816,186.93201   L 396.41815,186.93201   C 396.41815,187.23206 396.41815,187.23206 396.41815,187.73215   L 396.51816,187.83217   C 396.91817,187.63213 397.4182,187.4321 398.11823,187.4321   C 398.61825,187.4321 398.91827,187.63213 399.01827,187.83217   C 399.11827,187.93218 399.11827,188.13222 399.11827,188.43227   L 398.91827,188.43227   C 397.01818,188.73232 395.81812,189.13239 395.81812,190.53263   C 395.81812,191.63282 396.51816,192.33294 397.61821,192.33294   C 398.41824,192.33294 398.91827,191.93287 399.11827,191.83285   L 399.11827,192.1329   L 399.11827,192.23292   C 399.6183,192.23292 399.7183,192.23292 400.21832,192.23292   L 400.21832,192.1329   C 400.21832,191.43278 400.21832,191.33276 400.21832,190.03254   L 400.21832,188.93235   z  M 399.11827,189.23241   L 399.11827,189.23241   L 399.11827,191.03271   C 398.91827,191.13273 398.61825,191.43278 397.91822,191.43278   C 396.91817,191.43278 396.91817,190.53263 396.91817,190.53263   C 396.91817,189.53246 397.91822,189.43244 399.01827,189.23241   L 399.11827,189.23241   z "
     id="path105" />
  <path
     style="fill:#000000;fill-rule:nonzero;fill-opacity:1;stroke:none;"
     clip-path="url(#clipEmfPath1)"
     d="  M 404.0185,191.33276   L 404.0185,191.33276   C 403.91849,191.33276 403.71848,191.43278 403.51848,191.43278   C 403.01845,191.43278 402.91845,191.13273 402.91845,190.33259   C 402.91845,190.23258 402.91845,189.63247 402.91845,189.53246   L 402.91845,187.53211   C 403.51848,187.53211 403.51848,187.53211 404.0185,187.53211   L 404.1185,187.53211   C 404.1185,187.13205 404.1185,187.03203 404.1185,186.73198   L 404.1185,186.63196   C 403.51848,186.73198 403.31847,186.73198 402.91845,186.73198   C 402.91845,185.93184 402.91845,185.83182 402.91845,185.1317   L 402.91845,185.03169   C 402.41843,185.23172 402.31842,185.23172 401.8184,185.33174   L 401.71839,185.43175   C 401.71839,185.63179 401.8184,185.83182 401.8184,186.03186   C 401.8184,186.23189 401.8184,186.43193 401.8184,186.73198   C 401.41838,186.73198 401.31837,186.73198 401.11837,186.73198   L 401.01836,186.73198   C 401.01836,187.13205 401.01836,187.13205 401.01836,187.53211   L 401.01836,187.63213   C 401.41838,187.53211 401.41838,187.53211 401.8184,187.53211   L 401.8184,189.93253   C 401.8184,191.13273 401.8184,191.43278 401.9184,191.73283   C 402.31842,192.23292 402.91845,192.23292 403.21846,192.23292   C 403.61848,192.23292 403.81849,192.23292 404.0185,192.1329   L 404.0185,192.1329   C 404.1185,191.83285 404.1185,191.73283 404.1185,191.33276   L 404.0185,191.33276   z "
     id="path107" />
  <path
     style="fill:#000000;fill-rule:nonzero;fill-opacity:1;stroke:none;"
     clip-path="url(#clipEmfPath1)"
     d="  M 409.11873,188.93235   L 409.11873,188.93235   C 409.11873,188.53229 409.11873,187.93218 409.01873,187.63213   C 408.81872,186.83199 408.01868,186.53194 407.21865,186.53194   C 406.61862,186.53194 406.01859,186.73198 405.41856,186.93201   L 405.31856,186.93201   C 405.31856,187.23206 405.31856,187.23206 405.31856,187.73215   L 405.41856,187.83217   C 405.81858,187.63213 406.3186,187.4321 407.01864,187.4321   C 407.51866,187.4321 407.71867,187.63213 407.91868,187.83217   C 407.91868,187.93218 407.91868,188.13222 407.91868,188.43227   L 407.81867,188.43227   C 405.91859,188.73232 404.71853,189.13239 404.71853,190.53263   C 404.71853,191.63282 405.41856,192.33294 406.51861,192.33294   C 407.31865,192.33294 407.81867,191.93287 408.01868,191.83285   L 407.91868,192.1329   L 408.01868,192.23292   C 408.5187,192.23292 408.61871,192.23292 409.11873,192.23292   L 409.11873,192.1329   C 409.11873,191.43278 409.11873,191.33276 409.11873,190.03254   L 409.11873,188.93235   z  M 408.01868,189.23241   L 408.01868,189.23241   L 408.01868,191.03271   C 407.81867,191.13273 407.51866,191.43278 406.81863,191.43278   C 405.81858,191.43278 405.81858,190.53263 405.81858,190.53263   C 405.81858,189.53246 406.81863,189.43244 407.91868,189.23241   L 408.01868,189.23241   z "
     id="path109" />
  <path
     style="fill:#000000;fill-rule:nonzero;fill-opacity:1;stroke:none;"
     clip-path="url(#clipEmfPath1)"
     d="  M 415.019,192.1329   L 415.019,192.1329   C 415.019,192.03288 415.019,191.93287 415.019,191.83285   C 414.919,190.33259 414.919,188.93235 414.919,187.53211   C 415.31902,187.53211 415.41902,187.53211 415.91904,187.53211   L 415.91904,187.53211   C 415.91904,187.13205 415.91904,187.13205 416.01905,186.73198   L 415.91904,186.73198   C 415.81904,186.73198 414.919,186.73198 414.919,186.73198   L 414.919,186.43193   C 414.919,185.63179 414.919,185.33174 415.019,185.1317   C 415.21901,184.83165 415.41902,184.83165 415.71903,184.83165   C 415.81904,184.83165 415.81904,184.83165 415.91904,184.83165   L 416.01905,184.83165   C 416.01905,184.43158 416.01905,184.33157 416.11905,184.03151   L 416.01905,183.9315   C 415.91904,183.9315 415.81904,183.9315 415.61903,183.9315   C 415.31902,183.9315 414.01896,183.9315 413.81895,185.1317   C 413.71894,185.33174 413.71894,185.43175 413.71894,186.03186   L 413.81895,186.73198   C 413.61894,186.73198 413.41893,186.73198 413.11892,186.73198   L 413.01891,186.73198   C 413.01891,187.13205 413.01891,187.23206 413.01891,187.53211   L 413.01891,187.53211   C 413.31892,187.53211 413.51893,187.53211 413.81895,187.53211   C 413.81895,188.0322 413.81895,188.23223 413.81895,188.73232   C 413.81895,189.93253 413.81895,191.03271 413.71894,192.1329   L 413.81895,192.23292   C 414.41897,192.23292 414.41897,192.23292 414.919,192.23292   L 415.019,192.1329   z "
     id="path111" />
  <path
     style="fill:#000000;fill-rule:nonzero;fill-opacity:1;stroke:none;"
     clip-path="url(#clipEmfPath1)"
     d="  M 421.11928,190.83268   L 421.11928,190.83268   C 421.01928,190.9327 420.71926,191.13273 420.31924,191.33276   C 420.01923,191.43278 419.71922,191.5328 419.4192,191.5328   C 419.11919,191.5328 418.51916,191.43278 418.01914,190.9327   C 417.71913,190.43261 417.71913,189.93253 417.61912,189.63247   C 419.4192,189.53246 419.71922,189.53246 421.31929,189.63247   L 421.4193,189.53246   C 421.4193,189.03237 421.4193,188.0322 420.81927,187.33208   C 420.51925,186.93201 419.91923,186.53194 419.11919,186.53194   C 417.71913,186.53194 416.51907,187.53211 416.51907,189.53246   C 416.51907,191.33276 417.61912,192.33294 419.3192,192.33294   C 420.31924,192.33294 420.91927,192.03288 421.01928,191.93287   L 421.11928,191.83285   C 421.11928,191.43278 421.11928,191.33276 421.21929,190.9327   L 421.11928,190.83268   z  M 420.31924,188.73232   L 420.31924,188.73232   C 419.3192,188.73232 418.91918,188.83234 417.61912,188.73232   C 417.81913,187.73215 418.51916,187.33208 419.01919,187.33208   C 419.51921,187.33208 420.01923,187.53211 420.21924,188.13222   C 420.31924,188.43227 420.31924,188.6323 420.31924,188.73232   z "
     id="path113" />
  <path
     style="fill:#000000;fill-rule:nonzero;fill-opacity:1;stroke:none;"
     clip-path="url(#clipEmfPath1)"
     d="  M 426.91955,190.83268   L 426.91955,190.83268   C 426.71954,190.9327 426.51953,191.13273 426.11951,191.33276   C 425.8195,191.43278 425.51948,191.5328 425.21947,191.5328   C 424.91946,191.5328 424.31943,191.43278 423.81941,190.9327   C 423.51939,190.43261 423.41939,189.93253 423.41939,189.63247   C 425.21947,189.53246 425.51948,189.53246 427.11956,189.63247   L 427.21956,189.53246   C 427.21956,189.03237 427.21956,188.0322 426.61953,187.33208   C 426.31952,186.93201 425.71949,186.53194 424.91946,186.53194   C 423.51939,186.53194 422.31934,187.53211 422.31934,189.53246   C 422.31934,191.33276 423.41939,192.33294 425.11946,192.33294   C 426.11951,192.33294 426.61953,192.03288 426.81954,191.93287   L 426.91955,191.83285   C 426.91955,191.43278 426.91955,191.33276 427.01955,190.9327   L 426.91955,190.83268   z  M 426.11951,188.73232   L 426.11951,188.73232   C 425.11946,188.73232 424.71945,188.83234 423.41939,188.73232   C 423.51939,187.73215 424.21942,187.33208 424.81945,187.33208   C 425.31947,187.33208 425.8195,187.53211 426.01951,188.13222   C 426.11951,188.43227 426.11951,188.6323 426.11951,188.73232   z "
     id="path115" />
  <path
     style="fill:#000000;fill-rule:nonzero;fill-opacity:1;stroke:none;"
     clip-path="url(#clipEmfPath1)"
     d="  M 431.81977,184.03151   L 431.81977,184.03151   C 431.91978,184.63162 432.01978,185.33174 431.91978,186.63196   C 431.71977,186.53194 431.61976,186.53194 431.31975,186.53194   C 430.81973,186.53194 429.81968,186.63196 429.01964,187.33208   C 428.61962,187.73215 428.1196,188.43227 428.1196,189.63247   C 428.1196,191.23275 429.01964,192.33294 430.41971,192.33294   C 431.21974,192.33294 431.71977,191.93287 431.91978,191.73283   L 431.91978,192.1329   L 432.01978,192.23292   C 432.5198,192.23292 432.61981,192.23292 433.01983,192.23292   L 433.11983,192.1329   C 433.11983,191.43278 433.01983,190.63264 433.01983,188.93235   C 433.01983,187.93218 433.01983,185.33174 433.11983,183.83148   L 433.01983,183.73146   C 432.5198,183.83148 432.4198,183.83148 431.91978,183.9315   L 431.81977,184.03151   z  M 431.91978,190.9327   L 431.91978,190.9327   C 431.81977,191.03271 431.41975,191.33276 430.71972,191.33276   C 430.2197,191.33276 429.81968,191.13273 429.61967,190.9327   C 429.41966,190.63264 429.21965,190.23258 429.21965,189.63247   C 429.21965,188.6323 429.61967,188.13222 429.81968,187.93218   C 430.41971,187.4321 431.11974,187.4321 431.41975,187.4321   C 431.61976,187.4321 431.71977,187.4321 431.91978,187.4321   C 431.91978,189.23241 431.91978,189.53246 431.91978,190.9327   z "
     id="path117" />
  <path
     style="fill:#000000;fill-rule:nonzero;fill-opacity:1;stroke:none;"
     clip-path="url(#clipEmfPath1)"
     d="  M 442.52026,191.23275   L 442.52026,191.23275   C 441.32021,191.33276 441.1202,191.33276 440.32016,191.33276   L 439.32011,191.33276   L 439.92014,190.73266   C 441.52022,189.23241 442.32025,188.23223 442.32025,187.03203   C 442.32025,185.93184 441.42021,184.93167 439.82014,184.93167   C 439.42012,184.93167 439.0201,184.93167 438.72009,185.03169   C 438.12006,185.23172 437.82005,185.43175 437.62004,185.53177   L 437.62004,185.63179   C 437.62004,186.23189 437.62004,186.23189 437.62004,186.63196   L 437.72004,186.73198   C 437.92005,186.43193 438.12006,186.23189 438.62008,186.03186   C 438.9201,185.93184 439.22011,185.83182 439.62013,185.83182   C 440.62017,185.83182 441.1202,186.53194 441.1202,187.23206   C 441.1202,188.0322 440.42017,188.83234 439.92014,189.33242   C 439.0201,190.33259 438.22006,191.23275 437.32002,192.1329   L 437.32002,192.23292   C 438.42007,192.23292 441.82023,192.23292 442.02024,192.23292   L 442.42026,192.23292   L 442.52026,192.1329   C 442.52026,191.83285 442.52026,191.73283 442.52026,191.33276   L 442.52026,191.23275   z "
     id="path119" />
  <path
     style="fill:#fefefe;fill-rule:nonzero;fill-opacity:1;stroke:none;"
     clip-path="url(#clipEmfPath1)"
     d="  M 495.32268,171.42936   L 495.32268,171.42936   L 580.32657,171.42936   L 580.32657,205.43518   L 495.32268,205.43518   L 495.32268,171.42936   z "
     id="path121" />
  <path
     style="fill:none;stroke:#00adee;stroke-width:1.200055px;stroke-linecap:butt;stroke-linejoin:miter;stroke-miterlimit:3;stroke-dasharray:none;stroke-opacity:1;"
     clip-path="url(#clipEmfPath1)"
     d="  M 495.32268,171.42936   L 495.32268,171.42936   L 580.32657,171.42936   L 580.32657,205.43518   L 495.32268,205.43518   L 495.32268,171.42936   z "
     id="path123" />
  <path
     style="fill:#000000;fill-rule:nonzero;fill-opacity:1;stroke:none;"
     clip-path="url(#clipEmfPath1)"
     d="  M 520.72384,184.43158   L 520.72384,184.43158   C 520.72384,183.13136 520.72384,182.73129 520.62384,181.6311   C 520.82385,181.6311 520.92385,181.6311 521.12386,181.6311   C 522.42392,181.6311 523.62397,181.43107 524.224,180.33088   C 524.42401,180.03083 524.52402,179.63076 524.52402,179.23069   C 524.52402,178.43056 524.224,177.43038 523.02395,177.13033   C 522.52392,176.9303 522.0239,176.9303 521.32387,176.9303   L 520.62384,176.9303   C 520.42383,176.9303 519.62379,176.9303 519.42378,176.9303   L 519.42378,177.03032   C 519.52379,178.63059 519.52379,180.33088 519.52379,182.03117   C 519.52379,183.23138 519.42378,183.73146 519.42378,184.43158   L 519.52379,184.5316   C 520.02381,184.43158 520.12381,184.43158 520.72384,184.43158   L 520.72384,184.43158   z  M 520.62384,180.73095   L 520.62384,180.73095   C 520.62384,180.23086 520.62384,179.8308 520.62384,179.33071   C 520.62384,178.83062 520.62384,178.33054 520.62384,177.83045   C 520.92385,177.83045 521.12386,177.83045 521.62388,177.83045   C 522.0239,177.83045 522.82394,177.83045 523.22396,178.53057   C 523.32396,178.73061 523.32396,179.03066 523.32396,179.23069   C 523.32396,179.43073 523.32396,179.73078 523.12395,179.93081   C 522.82394,180.63093 522.0239,180.73095 521.72389,180.73095   C 521.42387,180.73095 521.02386,180.73095 520.62384,180.73095   z "
     id="path125" />
  <path
     style="fill:#000000;fill-rule:nonzero;fill-opacity:1;stroke:none;"
     clip-path="url(#clipEmfPath1)"
     d="  M 528.12418,180.03083   L 528.12418,180.03083   C 528.22419,179.53074 528.22419,179.43073 528.32419,178.93064   L 528.32419,178.83062   C 528.22419,178.83062 528.12418,178.83062 528.02418,178.83062   C 527.12414,178.83062 526.82412,179.53074 526.72412,179.8308   L 526.72412,178.93064   L 526.72412,178.83062   C 526.22409,178.93064 526.02408,179.03066 525.62407,179.13068   L 525.52406,179.13068   C 525.62407,179.73078 525.62407,180.23086 525.62407,181.93115   C 525.62407,182.93133 525.62407,183.63145 525.62407,184.43158   L 525.62407,184.5316   C 526.12409,184.43158 526.3241,184.43158 526.72412,184.43158   L 526.82412,184.43158   C 526.82412,183.83148 526.72412,183.13136 526.72412,181.93115   C 526.72412,180.83097 526.72412,180.4309 527.22414,180.13085   C 527.32414,180.03083 527.42415,179.93081 527.62416,179.93081   C 527.82417,179.93081 527.92417,180.03083 528.02418,180.03083   L 528.12418,180.03083   z "
     id="path127" />
  <path
     style="fill:#000000;fill-rule:nonzero;fill-opacity:1;stroke:none;"
     clip-path="url(#clipEmfPath1)"
     d="  M 530.32428,184.43158   L 530.32428,184.43158   C 530.32428,183.63145 530.32428,183.43141 530.32428,181.43107   C 530.32428,180.03083 530.32428,179.53074 530.32428,178.93064   L 530.22428,178.83062   C 529.72425,179.03066 529.52424,179.03066 529.12423,179.13068   L 529.02422,179.13068   C 529.12423,179.8308 529.12423,180.13085 529.12423,182.23121   C 529.12423,183.33139 529.12423,183.83148 529.12423,184.43158   L 529.12423,184.5316   C 529.62425,184.43158 529.72425,184.43158 530.32428,184.43158   L 530.32428,184.43158   z  M 530.42429,177.33037   L 530.42429,177.33037   C 530.32428,176.83028 530.32428,176.73026 530.42429,176.3302   L 530.32428,176.23018   C 529.82426,176.3302 529.72425,176.3302 529.12423,176.3302   L 529.02422,176.43021   C 529.02422,176.63025 529.12423,176.83028 529.12423,177.03032   C 529.12423,177.13033 529.12423,177.33037 529.02422,177.43038   L 529.12423,177.5304   C 529.62425,177.43038 529.72425,177.43038 530.32428,177.43038   L 530.42429,177.33037   z "
     id="path129" />
  <path
     style="fill:#000000;fill-rule:nonzero;fill-opacity:1;stroke:none;"
     clip-path="url(#clipEmfPath1)"
     d="  M 536.52457,184.43158   L 536.52457,184.43158   C 536.52457,184.03151 536.52457,183.53143 536.52457,182.23121   L 536.52457,181.031   C 536.52457,180.33088 536.42456,180.03083 536.32456,179.73078   C 536.22455,179.43073 536.02454,179.23069 535.72453,179.03066   C 535.42452,178.93064 535.1245,178.83062 534.82449,178.83062   C 533.92445,178.83062 533.22441,179.33071 532.9244,179.53074   L 533.02441,178.93064   L 532.9244,178.83062   C 532.42438,178.93064 532.32437,179.03066 531.82435,179.13068   L 531.72435,179.13068   C 531.72435,179.8308 531.82435,180.73095 531.82435,182.43124   C 531.82435,183.23138 531.82435,183.83148 531.82435,184.43158   L 531.82435,184.5316   C 532.42438,184.43158 532.42438,184.43158 533.02441,184.43158   L 533.02441,184.43158   C 532.9244,183.13136 532.9244,182.23121 532.9244,180.33088   C 533.22441,180.13085 533.72444,179.73078 534.32446,179.73078   C 534.52447,179.73078 535.1245,179.73078 535.32451,180.53092   C 535.42452,180.73095 535.42452,180.83097 535.42452,182.53126   C 535.42452,183.03134 535.42452,183.53143 535.42452,184.03151   C 535.42452,184.23155 535.32451,184.33157 535.32451,184.43158   L 535.42452,184.5316   C 535.92454,184.43158 536.02454,184.43158 536.52457,184.43158   L 536.52457,184.43158   z "
     id="path131" />
  <path
     style="fill:#000000;fill-rule:nonzero;fill-opacity:1;stroke:none;"
     clip-path="url(#clipEmfPath1)"
     d="  M 541.92481,183.13136   L 541.92481,183.13136   C 541.7248,183.33139 541.32479,183.73146 540.52475,183.73146   C 539.72471,183.73146 538.92468,183.13136 538.92468,181.73112   C 538.92468,180.33088 539.72471,179.73078 540.52475,179.73078   C 541.02477,179.73078 541.42479,179.8308 541.7248,180.13085   L 541.82481,180.03083   C 541.82481,179.73078 541.82481,179.63076 541.92481,179.23069   L 541.82481,179.13068   C 541.6248,179.03066 541.12478,178.83062 540.42474,178.83062   C 538.72467,178.83062 537.72462,180.13085 537.72462,181.73112   C 537.72462,183.43141 538.82467,184.5316 540.42474,184.5316   C 541.12478,184.5316 541.52479,184.33157 541.82481,184.23155   L 541.92481,184.13153   C 541.92481,183.73146 541.92481,183.63145 542.02482,183.23138   L 541.92481,183.13136   z "
     id="path133" />
  <path
     style="fill:#000000;fill-rule:nonzero;fill-opacity:1;stroke:none;"
     clip-path="url(#clipEmfPath1)"
     d="  M 544.12491,184.43158   L 544.12491,184.43158   C 544.12491,183.63145 544.02491,183.43141 544.02491,181.43107   C 544.02491,180.03083 544.12491,179.53074 544.12491,178.93064   L 544.02491,178.83062   C 543.52489,179.03066 543.32488,179.03066 542.92486,179.13068   L 542.82485,179.13068   C 542.92486,179.8308 542.92486,180.13085 542.92486,182.23121   C 542.92486,183.33139 542.92486,183.83148 542.82485,184.43158   L 542.92486,184.5316   C 543.42488,184.43158 543.52489,184.43158 544.02491,184.43158   L 544.12491,184.43158   z  M 544.12491,177.33037   L 544.12491,177.33037   C 544.12491,176.83028 544.12491,176.73026 544.12491,176.3302   L 544.12491,176.23018   C 543.52489,176.3302 543.42488,176.3302 542.92486,176.3302   L 542.82485,176.43021   C 542.82485,176.63025 542.82485,176.83028 542.82485,177.03032   C 542.82485,177.13033 542.82485,177.33037 542.82485,177.43038   L 542.92486,177.5304   C 543.42488,177.43038 543.52489,177.43038 544.12491,177.43038   L 544.12491,177.33037   z "
     id="path135" />
  <path
     style="fill:#000000;fill-rule:nonzero;fill-opacity:1;stroke:none;"
     clip-path="url(#clipEmfPath1)"
     d="  M 546.72503,178.93064   L 546.72503,178.93064   L 546.62503,178.83062   C 546.22501,178.93064 546.025,179.03066 545.52498,179.13068   L 545.52498,179.13068   C 545.62498,180.33088 545.62498,181.13102 545.62498,182.73129   C 545.62498,183.33139 545.62498,184.03151 545.62498,184.63162   C 545.62498,185.73181 545.62498,186.33191 545.62498,187.03203   L 545.62498,187.03203   C 546.025,187.03203 546.42502,187.03203 546.72503,187.03203   L 546.82504,187.03203   C 546.72503,186.03186 546.72503,185.73181 546.72503,184.43158   C 546.92504,184.43158 547.02505,184.43158 547.22506,184.43158   C 549.42516,184.43158 550.52521,183.03134 550.52521,181.43107   C 550.52521,179.93081 549.62517,178.83062 548.2251,178.83062   C 547.42506,178.83062 546.92504,179.23069 546.72503,179.43073   L 546.72503,178.93064   z  M 546.72503,183.63145   L 546.72503,183.63145   C 546.72503,183.03134 546.72503,182.43124 546.72503,181.73112   C 546.72503,181.23104 546.72503,180.73095 546.72503,180.13085   C 546.92504,179.93081 547.42506,179.73078 547.92509,179.73078   C 548.82513,179.73078 549.42516,180.33088 549.42516,181.53109   C 549.42516,182.83131 548.62512,183.63145 547.22506,183.63145   C 547.02505,183.63145 546.82504,183.63145 546.72503,183.63145   z "
     id="path137" />
  <path
     style="fill:#000000;fill-rule:nonzero;fill-opacity:1;stroke:none;"
     clip-path="url(#clipEmfPath1)"
     d="  M 555.82545,181.23104   L 555.82545,181.23104   C 555.82545,180.83097 555.82545,180.23086 555.72544,179.93081   C 555.52544,179.03066 554.8254,178.83062 554.02537,178.83062   C 553.32533,178.83062 552.72531,178.93064 552.12528,179.13068   L 552.12528,179.23069   C 552.12528,179.43073 552.12528,179.53074 552.02528,180.03083   L 552.12528,180.03083   C 552.6253,179.8308 553.12533,179.63076 553.72535,179.63076   C 554.32538,179.63076 554.52539,179.8308 554.62539,180.03083   C 554.7254,180.23086 554.7254,180.4309 554.7254,180.73095   L 554.52539,180.73095   C 552.6253,180.93098 551.42525,181.43107 551.42525,182.83131   C 551.42525,183.83148 552.22528,184.63162 553.22533,184.63162   C 554.02537,184.63162 554.52539,184.23155 554.7254,184.03151   L 554.7254,184.43158   L 554.8254,184.5316   C 555.22542,184.43158 555.32543,184.43158 555.82545,184.43158   L 555.92545,184.43158   C 555.82545,183.73146 555.82545,183.63145 555.82545,182.23121   L 555.82545,181.23104   z  M 554.7254,181.53109   L 554.7254,181.53109   L 554.7254,183.23138   C 554.62539,183.33139 554.22538,183.73146 553.62535,183.73146   C 552.6253,183.73146 552.6253,182.83131 552.6253,182.73129   C 552.6253,181.83114 553.62535,181.6311 554.62539,181.53109   L 554.7254,181.53109   z "
     id="path139" />
  <path
     style="fill:#000000;fill-rule:nonzero;fill-opacity:1;stroke:none;"
     clip-path="url(#clipEmfPath1)"
     d="  M 558.52557,184.43158   L 558.52557,184.43158   C 558.52557,183.33139 558.52557,182.53126 558.52557,180.23086   C 558.52557,178.83062 558.52557,177.43038 558.52557,176.03014   L 558.52557,176.03014   C 557.92555,176.13016 557.82554,176.13016 557.32552,176.23018   L 557.32552,176.3302   C 557.42552,177.63042 557.42552,179.23069 557.42552,180.63093   C 557.42552,182.73129 557.32552,183.63145 557.32552,184.43158   L 557.42552,184.5316   C 557.92555,184.43158 558.02555,184.43158 558.52557,184.43158   L 558.52557,184.43158   z "
     id="path141" />
  <path
     style="fill:#000000;fill-rule:nonzero;fill-opacity:1;stroke:none;"
     clip-path="url(#clipEmfPath1)"
     d="  M 525.12404,193.93321   L 525.12404,193.93321   C 524.42401,193.73318 524.02399,193.63316 524.02399,193.13307   C 524.02399,192.83302 524.32401,192.53297 524.62402,192.53297   C 524.72403,192.43295 524.92403,192.43295 525.02404,192.43295   C 525.72407,192.43295 526.12409,192.733 526.4241,192.83302   L 526.52411,192.83302   C 526.52411,192.43295 526.52411,192.33294 526.62411,192.03288   L 526.52411,191.93287   C 526.3241,191.83285 525.82408,191.63282 525.02404,191.63282   C 523.82398,191.63282 522.92394,192.1329 522.92394,193.23309   C 522.92394,194.33328 523.82398,194.63333 524.224,194.83336   L 524.62402,194.93338   C 525.22405,195.13342 525.72407,195.23343 525.72407,195.73352   C 525.72407,196.13359 525.42406,196.53366 524.52402,196.53366   C 523.72398,196.53366 523.32396,196.2336 523.12395,196.03357   L 523.02395,196.03357   C 522.92394,196.53366 522.92394,196.53366 522.92394,196.93372   L 522.92394,197.03374   C 523.02395,197.13376 523.12395,197.13376 523.12395,197.13376   C 523.52397,197.33379 524.02399,197.43381 524.62402,197.43381   C 524.92403,197.43381 525.72407,197.33379 526.3241,196.83371   C 526.72412,196.53366 526.92413,196.03357 526.92413,195.6335   C 526.92413,194.53331 525.92408,194.13324 525.52406,194.03323   L 525.12404,193.93321   z "
     id="path143" />
  <path
     style="fill:#000000;fill-rule:nonzero;fill-opacity:1;stroke:none;"
     clip-path="url(#clipEmfPath1)"
     d="  M 532.02436,191.73283   L 532.02436,191.73283   C 531.62434,191.73283 531.32433,191.73283 531.02431,191.73283   L 530.92431,191.83285   C 530.8243,192.43295 530.52429,193.23309 530.32428,194.03323   L 529.72425,195.83354   L 529.02422,193.83319   C 528.82421,193.13307 528.6242,192.733 528.42419,191.73283   L 528.32419,191.73283   C 527.72416,191.73283 527.62416,191.73283 527.12414,191.83285   L 527.12414,191.93287   C 527.52415,192.93304 529.12423,197.23378 529.12423,197.33379   C 529.12423,197.43381 529.12423,197.43381 529.12423,197.43381   C 529.02422,197.83388 528.82421,198.13393 528.6242,198.534   C 528.42419,198.93407 528.32419,199.33414 528.12418,199.7342   L 528.12418,199.83422   L 528.12418,199.83422   C 528.6242,199.83422 528.72421,199.83422 529.22423,199.83422   L 529.32424,199.7342   C 529.52424,198.73403 529.92426,197.83388 530.22428,196.83371   C 530.52429,196.13359 531.52434,193.33311 532.12436,191.83285   L 532.02436,191.73283   z "
     id="path145" />
  <path
     style="fill:#000000;fill-rule:nonzero;fill-opacity:1;stroke:none;"
     clip-path="url(#clipEmfPath1)"
     d="  M 534.62448,193.93321   L 534.62448,193.93321   C 534.02445,193.73318 533.52443,193.63316 533.52443,193.13307   C 533.52443,192.83302 533.82444,192.53297 534.12446,192.53297   C 534.32446,192.43295 534.42447,192.43295 534.62448,192.43295   C 535.32451,192.43295 535.72453,192.733 535.92454,192.83302   L 536.02454,192.83302   C 536.12455,192.43295 536.12455,192.33294 536.12455,192.03288   L 536.12455,191.93287   C 535.92454,191.83285 535.32451,191.63282 534.52447,191.63282   C 533.42442,191.63282 532.42438,192.1329 532.42438,193.23309   C 532.42438,194.33328 533.42442,194.63333 533.82444,194.83336   L 534.12446,194.93338   C 534.82449,195.13342 535.22451,195.23343 535.22451,195.73352   C 535.22451,196.13359 534.92449,196.53366 534.12446,196.53366   C 533.32442,196.53366 532.8244,196.2336 532.62439,196.03357   L 532.52438,196.03357   C 532.52438,196.53366 532.52438,196.53366 532.42438,196.93372   L 532.52438,197.03374   C 532.52438,197.13376 532.62439,197.13376 532.72439,197.13376   C 533.12441,197.33379 533.52443,197.43381 534.12446,197.43381   C 534.52447,197.43381 535.22451,197.33379 535.82453,196.83371   C 536.22455,196.53366 536.42456,196.03357 536.42456,195.6335   C 536.42456,194.53331 535.42452,194.13324 535.0245,194.03323   L 534.62448,193.93321   z "
     id="path147" />
  <path
     style="fill:#000000;fill-rule:nonzero;fill-opacity:1;stroke:none;"
     clip-path="url(#clipEmfPath1)"
     d="  M 539.82472,196.33362   L 539.82472,196.33362   C 539.72471,196.43364 539.5247,196.43364 539.32469,196.43364   C 538.72467,196.43364 538.72467,196.2336 538.72467,195.43347   C 538.72467,195.33345 538.72467,194.73335 538.62466,194.53331   L 538.72467,192.63299   C 539.22469,192.63299 539.32469,192.63299 539.82472,192.63299   L 539.92472,192.53297   C 539.92472,192.23292 539.92472,192.03288 539.92472,191.83285   L 539.92472,191.73283   C 539.22469,191.73283 539.12468,191.73283 538.72467,191.73283   C 538.72467,191.03271 538.72467,190.83268 538.72467,190.13256   L 538.62466,190.13256   C 538.22464,190.23258 538.02463,190.23258 537.62462,190.43261   L 537.52461,190.43261   C 537.52461,190.63264 537.52461,190.83268 537.52461,191.03271   C 537.52461,191.33276 537.52461,191.5328 537.62462,191.73283   C 537.2246,191.73283 537.12459,191.73283 536.82458,191.73283   L 536.82458,191.83285   C 536.82458,192.1329 536.82458,192.23292 536.72457,192.53297   L 536.82458,192.63299   C 537.2246,192.63299 537.2246,192.63299 537.62462,192.63299   L 537.52461,194.93338   C 537.52461,196.2336 537.52461,196.43364 537.72462,196.73369   C 538.02463,197.33379 538.72467,197.33379 539.02468,197.33379   C 539.4247,197.33379 539.5247,197.23378 539.82472,197.23378   L 539.82472,197.13376   C 539.82472,196.83371 539.82472,196.73369 539.92472,196.43364   L 539.82472,196.33362   z "
     id="path149" />
  <path
     style="fill:#000000;fill-rule:nonzero;fill-opacity:1;stroke:none;"
     clip-path="url(#clipEmfPath1)"
     d="  M 545.12496,195.93355   L 545.12496,195.93355   C 544.92495,196.03357 544.72494,196.2336 544.32492,196.43364   C 544.02491,196.53366 543.7249,196.53366 543.42488,196.53366   C 543.12487,196.53366 542.52484,196.53366 542.02482,195.93355   C 541.7248,195.53348 541.6248,195.0334 541.6248,194.63333   C 543.42488,194.63333 543.7249,194.63333 545.32497,194.63333   L 545.42497,194.53331   C 545.42497,194.13324 545.42497,193.03306 544.82495,192.33294   C 544.52493,191.93287 543.9249,191.63282 543.12487,191.63282   C 541.7248,191.63282 540.52475,192.53297 540.52475,194.53331   C 540.52475,196.43364 541.6248,197.43381 543.32488,197.43381   C 544.32492,197.43381 544.82495,197.13376 545.02495,197.03374   L 545.12496,196.93372   C 545.12496,196.53366 545.12496,196.43364 545.22496,195.93355   L 545.12496,195.93355   z  M 544.32492,193.83319   L 544.32492,193.83319   C 543.32488,193.83319 542.92486,193.83319 541.6248,193.83319   C 541.7248,192.733 542.42484,192.33294 543.02486,192.33294   C 543.52489,192.33294 544.02491,192.63299 544.22492,193.23309   C 544.32492,193.43312 544.32492,193.63316 544.32492,193.83319   z "
     id="path151" />
  <path
     style="fill:#000000;fill-rule:nonzero;fill-opacity:1;stroke:none;"
     clip-path="url(#clipEmfPath1)"
     d="  M 546.52502,191.93287   L 546.52502,191.93287   C 546.62503,192.43295 546.62503,193.13307 546.62503,195.13342   C 546.62503,196.2336 546.62503,196.83371 546.62503,197.23378   L 546.62503,197.33379   C 547.12505,197.23378 547.22506,197.23378 547.72508,197.23378   L 547.82508,197.23378   C 547.82508,196.63367 547.72508,196.03357 547.72508,194.93338   L 547.72508,193.13307   C 548.2251,192.733 548.72512,192.53297 549.12514,192.53297   C 549.72517,192.53297 549.92518,192.93304 549.92518,193.33311   C 550.02518,193.63316 550.02518,193.83319 550.02518,194.4333   C 550.02518,195.0334 550.02518,196.2336 550.02518,197.23378   L 550.02518,197.33379   C 550.52521,197.23378 550.62521,197.23378 551.12523,197.23378   L 551.22524,197.23378   C 551.12523,196.43364 551.12523,196.03357 551.12523,195.0334   L 551.12523,194.4333   C 551.12523,194.13324 551.12523,193.33311 551.12523,193.13307   C 551.72526,192.63299 552.22528,192.53297 552.42529,192.53297   C 553.02532,192.53297 553.32533,192.93304 553.42534,193.43312   C 553.42534,193.63316 553.42534,193.83319 553.42534,194.53331   C 553.42534,195.43347 553.42534,196.33362 553.42534,197.23378   L 553.52534,197.33379   C 554.02537,197.23378 554.02537,197.23378 554.52539,197.23378   L 554.62539,197.23378   C 554.62539,196.2336 554.52539,195.93355 554.52539,194.73335   L 554.52539,193.83319   C 554.52539,192.93304 554.52539,192.53297 554.02537,192.03288   C 553.72535,191.73283 553.32533,191.63282 552.92532,191.63282   C 551.92527,191.63282 551.12523,192.23292 550.92522,192.33294   C 550.72522,192.1329 550.4252,191.63282 549.52516,191.63282   C 548.72512,191.63282 548.1251,192.03288 547.72508,192.33294   L 547.72508,191.73283   L 547.72508,191.63282   C 547.42506,191.73283 547.12505,191.83285 546.52502,191.93287   L 546.52502,191.93287   z "
     id="path153" />
</svg>
