<svg xmlns="http://www.w3.org/2000/svg" class="nfig" viewBox="0 0 572 428" role="img" aria-label="Sociotechnical systems and regulation" font-family="Inter,'Segoe UI',Helvetica,Arial,sans-serif"><defs><marker id="arwV10-balanced-7" markerWidth="10" markerHeight="10" refX="5" refY="5" orient="auto-start-reverse"><path d="M1,1 L9,5 L1,9 z" fill="#5A6472"/></marker></defs><rect x="124" y="6" width="324" height="40" rx="3" fill="#fff" stroke="#2FB3CE" stroke-width="1.7"/><text x="286" y="32" text-anchor="middle" font-size="16.5" fill="#22303C">Society</text><rect x="124" y="66" width="324" height="40" rx="3" fill="#DFF2F6" stroke="#2FB3CE" stroke-width="1.7"/><text x="286" y="92" text-anchor="middle" font-size="16.5" fill="#22303C">Organization</text><rect x="124" y="126" width="324" height="40" rx="3" fill="#fff" stroke="#2FB3CE" stroke-width="1.7"/><text x="286" y="152" text-anchor="middle" font-size="16.5" fill="#22303C">Business processes</text><rect x="124" y="186" width="324" height="40" rx="3" fill="#DFF2F6" stroke="#2FB3CE" stroke-width="1.7"/><text x="286" y="212" text-anchor="middle" font-size="16.5" fill="#22303C">Application system</text><rect x="124" y="246" width="324" height="40" rx="3" fill="#fff" stroke="#2FB3CE" stroke-width="1.7"/><text x="286" y="272" text-anchor="middle" font-size="16.5" fill="#22303C">Communications and data management</text><rect x="124" y="306" width="324" height="40" rx="3" fill="#DFF2F6" stroke="#2FB3CE" stroke-width="1.7"/><text x="286" y="332" text-anchor="middle" font-size="16.5" fill="#22303C">Operating system</text><rect x="124" y="366" width="324" height="40" rx="3" fill="#fff" stroke="#2FB3CE" stroke-width="1.7"/><text x="286" y="392" text-anchor="middle" font-size="16.5" fill="#22303C">Equipment</text><line x1="76" y1="10" x2="76" y2="402" stroke="#5A6472" stroke-width="1.6" marker-start="url(#arwV10-balanced-7)" marker-end="url(#arwV10-balanced-7)"/><text x="36" y="196" text-anchor="middle" font-size="14" font-weight="600" fill="#3C4654">Systems</text><text x="36" y="214" text-anchor="middle" font-size="14" font-weight="600" fill="#3C4654">engineering</text><line x1="494" y1="190" x2="494" y2="342" stroke="#5A6472" stroke-width="1.6" marker-start="url(#arwV10-balanced-7)" marker-end="url(#arwV10-balanced-7)"/><text x="534" y="258" text-anchor="middle" font-size="14" font-weight="600" fill="#3C4654">Software</text><text x="534" y="276" text-anchor="middle" font-size="14" font-weight="600" fill="#3C4654">engineering</text></svg>